<?xml version="1.0" standalone="no"?>
<!DOCTYPE svg PUBLIC "-//W3C//DTD SVG 20010904//EN"
 "http://www.w3.org/TR/2001/REC-SVG-20010904/DTD/svg10.dtd">
<svg version="1.0" xmlns="http://www.w3.org/2000/svg"
 width="502.000000pt" height="502.000000pt" viewBox="0 0 502.000000 502.000000"
 preserveAspectRatio="xMidYMid meet">
<metadata>
Created by potrace 1.14, written by Peter Selinger 2001-2017
</metadata>
<g transform="translate(0.000000,502.000000) scale(0.100000,-0.100000)"
fill="#000000" stroke="none">
<path d="M2300 4891 c-16 -4 -25 -14 -25 -26 0 -14 -7 -19 -20 -18 -30 3 -103
-34 -116 -59 -6 -13 -19 -32 -29 -43 -9 -11 -23 -41 -30 -66 -9 -31 -22 -51
-41 -61 -21 -12 -26 -21 -22 -42 4 -19 1 -26 -11 -26 -11 0 -16 -9 -16 -28 0
-20 -7 -33 -24 -42 -14 -7 -30 -26 -37 -42 -7 -16 -24 -42 -38 -58 -48 -51
-54 -62 -78 -139 -37 -113 -34 -289 5 -333 11 -13 12 -21 4 -31 -9 -10 -8 -18
2 -32 7 -10 11 -27 8 -37 -6 -23 15 -74 44 -105 12 -13 31 -59 44 -106 11 -45
26 -94 32 -109 10 -28 39 -44 70 -39 32 4 57 -19 71 -65 9 -30 21 -49 37 -57
15 -8 27 -24 30 -42 4 -24 10 -30 30 -29 14 1 32 4 41 8 22 10 47 -37 30 -57
-6 -8 -9 -22 -5 -31 4 -12 2 -15 -9 -11 -21 9 -37 -43 -28 -92 10 -51 18 -63
43 -63 15 0 19 -5 15 -20 -4 -14 0 -20 13 -20 10 0 34 -7 53 -15 34 -14 39
-13 71 6 24 14 49 20 76 18 32 -3 43 1 56 19 8 12 21 22 29 22 7 0 23 20 35
44 14 29 29 46 45 50 31 8 34 42 5 51 -15 5 -27 -2 -46 -25 -19 -23 -34 -30
-52 -28 -23 3 -26 8 -28 47 -2 31 4 52 18 72 11 15 18 35 15 43 -4 10 -1 16 9
16 12 0 15 -6 10 -25 -10 -41 27 -31 68 17 27 31 34 47 30 64 -5 19 -1 26 20
34 14 5 26 14 26 19 0 6 14 26 31 45 28 32 30 39 20 68 -15 45 -10 80 11 86
22 5 23 11 3 26 -12 9 -13 21 -5 71 14 82 18 110 31 255 26 293 27 334 13 355
-8 12 -18 57 -24 100 -19 141 -120 395 -157 395 -9 0 -43 13 -77 29 -84 39
-125 51 -174 51 -22 0 -44 5 -47 10 -7 11 -18 11 -55 1z m166 -1714 c12 -7 6
-77 -6 -77 -4 0 -10 9 -13 20 -4 15 -14 20 -36 20 -17 0 -31 5 -31 10 0 6 -7
10 -15 10 -16 0 -20 12 -8 24 8 8 94 2 109 -7z m54 -86 c0 -5 -9 -19 -20 -32
l-20 -24 16 33 c15 32 24 40 24 23z"/>
<path d="M3436 4723 c-3 -3 -6 -15 -6 -25 0 -11 -7 -18 -19 -18 -25 0 -66 -34
-105 -85 -113 -151 -145 -192 -159 -204 -9 -7 -15 -17 -12 -21 2 -4 -7 -38
-21 -76 -14 -38 -31 -94 -39 -124 -7 -30 -28 -93 -45 -140 -58 -152 -69 -190
-75 -248 -12 -108 -14 -227 -4 -292 6 -36 13 -85 16 -110 3 -25 11 -52 18 -60
7 -8 18 -37 24 -65 7 -27 21 -55 32 -63 11 -7 27 -31 35 -53 13 -31 23 -41 53
-48 157 -41 149 -40 167 -20 9 10 25 19 36 19 25 0 115 47 158 82 19 16 90 70
157 119 67 50 125 99 128 110 4 10 13 19 21 19 8 0 14 7 14 15 0 8 5 15 10 15
6 0 10 7 10 15 0 8 9 19 20 25 15 8 19 17 15 31 -5 14 0 22 19 31 14 6 26 19
26 30 0 10 5 18 11 18 7 0 10 14 7 35 -2 19 -1 35 3 35 12 0 18 44 7 57 -8 10
-6 13 6 13 18 0 20 17 6 55 -7 19 -6 33 4 53 19 38 14 132 -7 144 -21 11 -22
57 -1 65 12 4 11 8 -8 17 -15 8 -22 20 -21 34 2 14 -3 22 -12 22 -22 0 -18 14
7 25 33 15 32 31 -2 45 -28 12 -33 11 -55 -10 -14 -13 -25 -20 -25 -15 0 20
36 121 46 130 26 23 45 63 34 70 -16 10 -60 105 -60 129 0 25 -55 93 -82 100
-13 3 -32 20 -43 38 -14 23 -28 32 -49 33 -19 0 -36 11 -52 30 -18 23 -25 26
-37 17 -14 -12 -54 -10 -123 3 -12 3 -24 2 -28 -2z m-126 -307 c0 -3 -4 -8
-10 -11 -5 -3 -10 -1 -10 4 0 6 5 11 10 11 6 0 10 -2 10 -4z m-25 -26 c3 -5 1
-10 -4 -10 -6 0 -11 5 -11 10 0 6 2 10 4 10 3 0 8 -4 11 -10z m55 -61 c-7 -11
-14 -19 -16 -16 -7 7 7 37 17 37 6 0 5 -9 -1 -21z"/>
<path d="M2960 4070 c-22 -17 -23 -19 -7 -25 18 -8 67 18 67 35 0 16 -33 11
-60 -10z"/>
<path d="M2975 4010 c-3 -5 -1 -10 4 -10 6 0 11 5 11 10 0 6 -2 10 -4 10 -3 0
-8 -4 -11 -10z"/>
<path d="M1360 3741 c0 -5 7 -12 16 -15 14 -5 14 -9 3 -22 -11 -13 -8 -19 14
-37 25 -21 26 -23 9 -43 -14 -16 -26 -20 -50 -16 -19 2 -32 10 -32 18 0 12 -5
12 -31 -1 -19 -11 -29 -22 -25 -31 3 -9 -1 -14 -12 -14 -10 0 -34 -17 -54 -37
-29 -30 -36 -45 -34 -70 2 -18 8 -39 15 -47 9 -11 4 -21 -30 -50 -33 -28 -39
-37 -26 -42 9 -3 22 -2 29 2 9 5 10 4 3 -4 -5 -6 -21 -13 -35 -15 -14 -3 -5
-5 18 -4 32 1 46 -3 53 -16 8 -13 6 -19 -8 -24 -41 -14 -69 -53 -38 -53 8 0
15 -7 15 -15 0 -11 5 -12 24 -5 17 6 28 5 35 -4 13 -15 9 -20 -61 -60 -27 -15
-48 -29 -48 -32 0 -3 4 -3 9 1 5 3 12 1 15 -4 3 -5 15 -7 26 -4 15 4 20 0 20
-15 0 -11 6 -22 13 -25 6 -2 8 -8 4 -13 -4 -4 -17 -3 -28 4 -20 13 -20 12 -2
-15 17 -26 17 -27 -1 -20 -13 5 -17 3 -13 -7 9 -22 -23 -29 -45 -10 -10 10
-23 35 -30 56 -6 21 -15 38 -20 38 -5 0 -6 -4 -3 -10 3 -5 1 -10 -4 -10 -6 0
-11 -9 -11 -20 0 -11 4 -20 8 -20 5 0 19 -14 31 -31 27 -36 17 -58 -19 -39
-18 10 -24 9 -36 -7 -12 -16 -13 -16 -14 -1 0 11 -6 15 -20 11 -19 -5 -19 -6
4 -24 13 -11 29 -19 34 -19 6 0 8 -10 5 -21 -6 -21 -5 -21 21 -4 15 10 26 13
26 6 0 -6 -4 -11 -10 -11 -5 0 -7 -7 -4 -15 4 -10 2 -13 -8 -10 -21 8 -17 -45
6 -79 9 -15 14 -30 12 -35 -3 -5 1 -14 10 -21 12 -11 17 -11 27 0 9 10 9 11
-1 6 -17 -10 -24 13 -13 49 l9 30 1 -33 c1 -19 5 -31 11 -27 11 7 25 -39 15
-54 -3 -6 -17 -8 -31 -5 -22 6 -24 3 -24 -25 0 -31 -21 -43 -35 -21 -3 6 -2
10 4 10 6 0 8 7 5 15 -8 19 -24 20 -24 1 0 -9 -7 -13 -20 -11 -36 7 -30 -13
20 -63 27 -28 52 -46 56 -41 13 22 23 -5 17 -49 -6 -51 -11 -47 68 -52 8 -1
24 -12 34 -26 22 -30 65 -32 82 -4 10 15 10 22 -3 35 -8 8 -22 15 -30 15 -10
0 -14 8 -12 23 2 14 9 22 20 21 10 -1 17 1 16 5 -2 22 3 41 11 36 5 -3 13 0
16 6 4 5 14 8 22 5 9 -4 13 -1 10 6 -2 7 -12 12 -21 12 -9 -1 -16 2 -16 7 0 5
5 9 11 9 5 0 7 5 4 11 -4 6 -10 8 -13 5 -3 -3 -11 -1 -18 5 -8 7 -14 7 -19 -1
-5 -8 -11 -8 -21 1 -7 6 -21 9 -29 5 -18 -7 -20 5 -2 23 10 11 10 14 0 18 -16
6 -17 43 -3 43 6 0 21 -11 33 -25 12 -13 35 -27 50 -31 26 -6 28 -5 21 20 -4
18 -2 26 6 26 9 0 11 -13 8 -45 -3 -25 -1 -45 4 -45 5 0 7 -4 4 -9 -7 -10 24
-25 33 -16 3 3 -1 10 -8 14 -10 6 -10 10 -1 16 6 4 9 17 6 30 -7 27 3 39 21
24 8 -7 13 -8 13 -1 0 5 18 12 41 14 37 3 41 1 56 -30 12 -25 18 -30 25 -20 6
8 7 0 3 -25 -4 -26 -2 -42 9 -52 9 -10 17 -11 21 -5 10 16 26 0 20 -20 -9 -28
14 -35 36 -11 20 22 26 51 9 51 -15 0 -12 36 5 50 8 6 14 19 13 28 -3 37 3 52
19 52 14 0 14 3 5 12 -10 10 -15 10 -22 -2 -5 -8 -12 -11 -16 -7 -11 10 16 37
37 37 11 0 19 -7 20 -17 0 -13 3 -11 10 7 7 16 7 26 0 28 -5 2 -7 10 -4 18 3
8 0 14 -6 14 -8 0 -8 6 1 20 11 17 14 18 30 4 20 -19 45 -9 28 11 -8 9 -6 14
6 19 23 9 24 8 24 -18 0 -15 7 -26 20 -29 18 -5 20 0 20 50 0 40 -6 62 -20 80
-11 14 -20 32 -20 39 0 8 -5 14 -10 14 -6 0 -8 -11 -4 -25 4 -17 2 -25 -7 -25
-7 0 -9 -3 -6 -7 4 -3 -5 -12 -19 -20 -32 -16 -31 -16 -31 2 0 8 6 15 12 15 7
0 15 15 19 33 6 27 3 35 -21 54 -15 12 -31 21 -37 20 -5 -1 -18 36 -28 83 -10
47 -22 101 -27 121 -4 19 -20 60 -35 90 -15 29 -34 67 -42 83 -11 22 -12 31
-3 37 16 9 4 39 -16 39 -12 0 -15 6 -11 20 3 11 9 29 12 40 6 24 -14 27 -30 5
-10 -14 -16 -11 -46 21 -30 31 -32 35 -12 29 13 -4 22 -2 22 4 0 6 -5 11 -11
11 -6 0 -9 9 -6 20 3 13 -3 24 -19 35 -27 17 -32 35 -9 35 26 0 16 18 -15 29
-16 5 -30 6 -30 2z"/>
<path d="M1460 3741 c0 -5 5 -13 10 -16 6 -3 10 -2 10 4 0 5 -4 13 -10 16 -5
3 -10 2 -10 -4z"/>
<path d="M1500 3721 c0 -4 11 -25 25 -45 28 -41 31 -56 14 -73 -8 -8 -8 -16 0
-30 9 -16 10 -15 11 8 0 15 7 29 15 33 24 9 18 38 -16 79 -29 35 -49 47 -49
28z"/>
<path d="M1450 3681 c0 -13 28 -33 41 -29 6 2 0 12 -15 21 -14 10 -26 13 -26
8z"/>
<path d="M1450 3636 c0 -2 7 -9 15 -16 12 -10 15 -10 15 4 0 9 -7 16 -15 16
-8 0 -15 -2 -15 -4z"/>
<path d="M1575 3590 c3 -5 8 -10 11 -10 2 0 4 5 4 10 0 6 -5 10 -11 10 -5 0
-7 -4 -4 -10z"/>
<path d="M2870 3550 c0 -5 5 -10 10 -10 6 0 10 5 10 10 0 6 -4 10 -10 10 -5 0
-10 -4 -10 -10z"/>
<path d="M1600 3530 c0 -5 5 -10 11 -10 5 0 7 5 4 10 -3 6 -8 10 -11 10 -2 0
-4 -4 -4 -10z"/>
<path d="M1120 3510 c-13 -8 -12 -10 3 -10 9 0 17 5 17 10 0 12 -1 12 -20 0z"/>
<path d="M1580 3480 c0 -5 5 -10 11 -10 5 0 7 5 4 10 -3 6 -8 10 -11 10 -2 0
-4 -4 -4 -10z"/>
<path d="M1610 3480 c0 -5 5 -10 11 -10 5 0 7 5 4 10 -3 6 -8 10 -11 10 -2 0
-4 -4 -4 -10z"/>
<path d="M2817 3463 c-10 -9 -9 -23 2 -23 5 0 11 7 15 15 5 15 -5 20 -17 8z"/>
<path d="M1565 3450 c-3 -5 -1 -10 4 -10 6 0 11 5 11 10 0 6 -2 10 -4 10 -3 0
-8 -4 -11 -10z"/>
<path d="M1630 3427 c0 -7 7 -22 16 -33 14 -17 15 -17 10 -1 -3 10 -6 25 -6
33 0 8 -4 14 -10 14 -5 0 -10 -6 -10 -13z"/>
<path d="M721 3404 c0 -11 3 -14 6 -6 3 7 2 16 -1 19 -3 4 -6 -2 -5 -13z"/>
<path d="M1560 3411 c0 -6 5 -13 10 -16 6 -3 10 1 10 9 0 9 -4 16 -10 16 -5 0
-10 -4 -10 -9z"/>
<path d="M1110 3395 c-10 -12 -10 -15 4 -15 9 0 16 7 16 15 0 8 -2 15 -4 15
-2 0 -9 -7 -16 -15z"/>
<path d="M1600 3375 c-17 -21 -8 -28 15 -11 11 8 14 15 8 19 -6 4 -16 0 -23
-8z"/>
<path d="M841 3334 c0 -11 3 -14 6 -6 3 7 2 16 -1 19 -3 4 -6 -2 -5 -13z"/>
<path d="M1071 3316 c-8 -10 -9 -16 -1 -21 5 -3 13 1 16 10 9 22 -1 29 -15 11z"/>
<path d="M670 3310 c-13 -8 -12 -10 3 -10 9 0 17 5 17 10 0 12 -1 12 -20 0z"/>
<path d="M3695 3310 c-3 -5 -1 -10 4 -10 6 0 11 5 11 10 0 6 -2 10 -4 10 -3 0
-8 -4 -11 -10z"/>
<path d="M1640 3290 c27 -20 36 -19 27 5 -4 8 -17 15 -29 15 l-23 0 25 -20z"/>
<path d="M1088 3260 c-10 -11 -18 -27 -18 -35 0 -8 -7 -15 -15 -15 -8 0 -15
-4 -15 -10 0 -5 8 -7 18 -3 28 10 54 42 50 64 -3 20 -3 20 -20 -1z"/>
<path d="M998 3253 c7 -3 16 -2 19 1 4 3 -2 6 -13 5 -11 0 -14 -3 -6 -6z"/>
<path d="M1650 3220 c0 -5 5 -10 11 -10 5 0 7 5 4 10 -3 6 -8 10 -11 10 -2 0
-4 -4 -4 -10z"/>
<path d="M1750 3208 c0 -7 4 -19 9 -27 8 -12 11 -12 23 0 8 8 13 20 10 27 -5
16 -42 16 -42 0z"/>
<path d="M1105 3200 c3 -5 10 -10 16 -10 5 0 9 5 9 10 0 6 -7 10 -16 10 -8 0
-12 -4 -9 -10z"/>
<path d="M1700 3180 c-13 -8 -12 -10 3 -10 9 0 17 5 17 10 0 12 -1 12 -20 0z"/>
<path d="M980 3170 c0 -5 5 -10 10 -10 6 0 10 5 10 10 0 6 -4 10 -10 10 -5 0
-10 -4 -10 -10z"/>
<path d="M1050 3170 c0 -5 5 -10 10 -10 6 0 10 5 10 10 0 6 -4 10 -10 10 -5 0
-10 -4 -10 -10z"/>
<path d="M4328 3175 c-5 -5 -79 -13 -178 -18 -27 -2 -38 -8 -48 -29 -8 -18
-21 -28 -34 -28 -23 0 -138 -115 -138 -137 0 -6 -11 -20 -25 -31 -14 -11 -24
-26 -23 -34 2 -8 -5 -12 -20 -11 -13 2 -21 -1 -17 -6 7 -12 -1 -17 -42 -25
-29 -7 -32 -5 -42 27 -7 19 -9 47 -5 61 4 19 2 26 -9 26 -8 0 -18 -7 -21 -16
-4 -10 -12 -14 -22 -10 -12 5 -15 2 -10 -10 7 -19 -58 -84 -85 -84 -11 0 -19
-7 -19 -15 0 -8 -7 -15 -15 -15 -8 0 -15 7 -15 15 0 8 4 15 8 15 5 0 14 12 21
26 11 24 10 26 -9 21 -21 -5 -29 16 -10 28 15 10 12 23 -7 28 -15 4 -15 6 5
12 22 7 31 35 11 35 -15 0 -69 -62 -63 -72 3 -4 0 -8 -5 -8 -6 0 -11 -6 -11
-14 0 -22 -89 -54 -136 -49 -25 3 -44 0 -49 -7 -11 -17 3 -25 20 -10 12 10 16
9 21 -4 8 -20 27 -20 64 -1 17 9 30 11 30 6 0 -14 -23 -29 -55 -36 -59 -12
-105 -28 -105 -37 0 -12 23 -10 63 7 20 8 47 15 60 15 28 0 66 -35 45 -42 -7
-3 -18 2 -25 11 -11 14 -12 14 -13 0 0 -12 -11 -15 -51 -14 -34 1 -58 -4 -71
-15 -12 -10 -32 -14 -49 -12 -29 4 -37 16 -19 27 15 9 2 25 -21 25 -14 0 -19
-7 -19 -25 0 -13 -8 -28 -17 -34 -15 -8 -16 -12 -5 -23 9 -9 19 -10 40 -2 16
6 38 7 50 3 16 -6 24 -4 31 9 8 14 12 15 34 3 14 -7 30 -10 36 -7 6 4 11 3 11
-3 0 -6 -22 -18 -50 -28 -27 -10 -50 -21 -50 -24 0 -11 43 -19 55 -9 6 5 17 5
24 1 11 -7 9 -11 -8 -20 -11 -7 -21 -15 -21 -19 0 -14 83 -12 94 2 6 8 25 17
41 21 l30 7 -30 -32 c-20 -21 -36 -29 -50 -26 -11 3 -27 1 -35 -4 -12 -8 -13
-13 -3 -29 8 -13 9 -22 3 -26 -17 -10 -11 -25 10 -25 11 0 20 7 20 15 0 8 6
15 13 15 8 0 12 -18 12 -55 0 -48 2 -54 18 -49 11 4 17 0 17 -11 0 -9 4 -14 9
-10 22 13 20 -17 -3 -40 l-25 -25 24 6 c22 5 25 3 25 -23 0 -16 -5 -34 -11
-40 -6 -6 -12 -29 -13 -52 l-2 -40 34 15 c47 19 49 18 22 -11 -12 -13 -27 -22
-31 -19 -11 7 -51 -21 -43 -29 4 -3 16 -1 28 5 l21 11 -20 -23 c-11 -13 -14
-20 -6 -15 11 6 13 4 9 -7 -4 -8 2 -22 12 -30 16 -14 18 -14 18 9 0 32 8 39
27 23 11 -10 14 -22 9 -44 -6 -29 -6 -30 12 -16 11 8 22 19 26 25 4 5 10 6 14
3 3 -4 -1 -14 -10 -23 -9 -9 -16 -23 -16 -31 0 -23 26 -16 44 11 15 23 45 37
31 15 -3 -5 3 -10 14 -10 16 0 21 6 21 29 0 27 3 29 32 28 26 -2 35 -8 42 -29
11 -30 0 -51 -14 -28 -7 11 -11 8 -20 -14 -9 -23 -13 -26 -25 -16 -10 8 -15 9
-15 2 0 -6 -6 -9 -14 -6 -13 5 -33 -30 -28 -49 1 -4 -5 -10 -13 -13 -11 -5
-12 -11 -5 -25 6 -10 9 -24 8 -31 -2 -7 7 -14 19 -16 12 -2 27 -10 33 -18 16
-18 30 -18 30 1 0 23 15 18 28 -9 8 -19 7 -27 -11 -44 -20 -21 -20 -22 -2 -42
10 -11 26 -20 34 -19 9 1 31 -2 49 -6 30 -7 32 -10 32 -51 0 -49 10 -59 65
-59 37 0 39 -2 41 -32 1 -19 -2 -30 -8 -27 -6 4 -8 -2 -6 -12 2 -13 13 -20 35
-22 21 -2 34 -10 38 -23 5 -14 15 -19 41 -19 19 0 34 5 34 10 0 6 8 10 18 11
13 0 12 2 -5 9 -14 6 -23 18 -23 30 0 11 -9 39 -20 60 l-20 40 20 0 c23 0 27
18 5 26 -9 4 -14 11 -13 18 6 24 -42 86 -81 106 -23 11 -41 25 -41 30 0 6 -5
10 -11 10 -6 0 -8 -8 -4 -19 3 -12 0 -21 -10 -25 -24 -9 -55 16 -55 44 0 14
-9 39 -20 55 -11 17 -20 39 -19 50 0 11 3 15 5 9 3 -7 14 -10 25 -7 13 4 30
-4 49 -22 16 -15 33 -24 39 -21 7 4 11 -1 11 -12 0 -25 56 -48 76 -31 15 12
34 4 34 -14 0 -7 16 -17 35 -23 40 -12 48 1 11 17 -18 8 -24 19 -23 38 2 21
-2 26 -19 24 -21 -2 -21 -1 -5 33 8 19 21 32 27 30 7 -3 15 -2 19 2 9 9 55 10
55 1 0 -4 -16 -10 -35 -13 -21 -4 -35 -13 -35 -22 0 -19 28 -30 43 -15 18 18
36 13 30 -9 -3 -11 0 -20 6 -20 5 0 8 -7 5 -15 -4 -8 -1 -15 5 -15 6 0 11 7
11 15 0 8 4 15 9 15 5 0 8 20 7 44 -1 37 -3 42 -15 33 -12 -10 -13 -9 -8 6 4
10 7 21 7 23 0 2 7 4 15 4 18 0 19 12 3 28 -9 9 -6 12 14 12 15 0 30 5 33 10
10 16 28 12 21 -5 -3 -10 1 -15 12 -15 25 0 47 16 33 24 -6 4 -11 13 -11 19 1
7 10 1 21 -12 11 -14 18 -32 16 -41 -2 -9 4 -22 14 -28 11 -7 16 -19 13 -29
-5 -16 -4 -16 6 0 9 15 8 22 -6 38 -17 18 -16 19 16 19 34 0 35 4 15 53 -5 13
-2 17 13 17 12 0 24 -4 27 -10 8 -13 45 -13 45 1 0 5 -4 7 -10 4 -5 -3 -15 -3
-21 1 -7 4 -1 12 17 20 l29 12 -28 1 c-24 1 -26 4 -18 20 6 10 7 22 3 26 -4 4
15 5 41 2 42 -4 47 -2 42 12 -12 30 -10 36 11 39 18 2 20 -1 16 -26 -3 -22 2
-33 19 -46 26 -18 39 -8 39 32 0 12 4 22 10 22 5 0 7 6 4 14 -4 9 2 16 17 18
30 4 37 28 10 35 -12 3 -21 9 -21 14 0 12 44 29 76 29 14 0 24 6 24 14 0 8 7
16 15 20 17 6 20 42 5 51 -16 10 -2 24 18 19 30 -7 45 10 37 45 -4 17 -13 31
-21 31 -11 0 -11 5 -2 25 6 14 19 25 30 25 10 0 18 7 18 15 0 8 5 15 10 15 6
0 10 5 10 10 0 6 -7 10 -15 10 -9 0 -18 7 -22 16 -3 8 -12 13 -21 9 -8 -3 -21
0 -28 6 -8 6 -25 8 -39 5 -14 -4 -25 -2 -25 3 0 10 15 16 71 25 21 4 43 13 50
22 10 12 8 17 -9 30 -12 8 -22 22 -22 30 0 8 -4 14 -8 14 -5 0 -17 7 -28 15
-17 13 -15 14 26 9 l46 -6 1 60 c2 50 -1 61 -16 65 -10 2 -28 19 -40 36 -23
32 -23 32 -2 38 17 4 18 7 6 19 -7 8 -17 14 -22 14 -5 0 -14 14 -20 30 -11 28
-33 42 -33 20 0 -5 -7 -10 -15 -10 -8 0 -15 9 -15 20 0 11 -5 20 -10 20 -6 0
-20 8 -31 18 -11 11 -39 24 -62 31 -114 32 -157 47 -157 54 0 8 -74 10 -82 2z
m-162 -160 c-13 -8 -12 -12 12 -31 35 -28 23 -41 -19 -20 -18 9 -38 16 -45 16
-7 0 4 17 24 39 28 29 38 34 41 22 2 -8 -4 -20 -13 -26z m88 -66 c-6 -11 -24
-2 -24 11 0 5 7 7 15 4 8 -4 12 -10 9 -15z m-74 -169 c0 -5 -7 -10 -16 -10 -8
0 -12 5 -9 10 3 6 10 10 16 10 5 0 9 -4 9 -10z m-677 -62 c-4 -20 -12 -27 -34
-30 -19 -3 -29 0 -29 8 0 7 -6 15 -12 18 -7 3 0 2 16 -1 21 -4 27 -3 22 6 -4
7 2 15 16 20 28 11 27 12 21 -21z m749 -210 c-7 -7 -12 -8 -12 -2 0 14 12 26
19 19 2 -3 -1 -11 -7 -17z m38 -18 c0 -5 -2 -10 -4 -10 -3 0 -8 5 -11 10 -3 6
-1 10 4 10 6 0 11 -4 11 -10z m-164 -147 c-10 -10 -19 5 -10 18 6 11 8 11 12
0 2 -7 1 -15 -2 -18z m-116 -37 c0 -3 -4 -8 -10 -11 -5 -3 -10 -1 -10 4 0 6 5
11 10 11 6 0 10 -2 10 -4z m130 -27 c0 -4 -7 -6 -15 -3 -8 4 -15 10 -15 15 0
4 7 6 15 3 8 -4 15 -10 15 -15z m-120 -23 c0 -3 -4 -8 -10 -11 -5 -3 -10 -1
-10 4 0 6 5 11 10 11 6 0 10 -2 10 -4z m-383 -109 c24 -3 45 -2 48 3 5 9 55 1
55 -9 0 -16 -13 -19 -36 -11 -21 8 -24 7 -24 -15 0 -35 -15 -39 -30 -7 l-12
27 -11 -22 c-13 -30 -18 -29 -44 12 -28 42 -28 49 -5 37 9 -5 36 -12 59 -15z
m-87 -17 c0 -5 -5 -10 -11 -10 -5 0 -7 5 -4 10 3 6 8 10 11 10 2 0 4 -4 4 -10z"/>
<path d="M680 3160 c0 -5 5 -10 11 -10 5 0 7 5 4 10 -3 6 -8 10 -11 10 -2 0
-4 -4 -4 -10z"/>
<path d="M1103 3156 c-13 -6 -23 -16 -23 -22 0 -16 40 -5 47 13 7 19 2 21 -24
9z"/>
<path d="M1055 3140 c-3 -5 -1 -10 4 -10 6 0 11 5 11 10 0 6 -2 10 -4 10 -3 0
-8 -4 -11 -10z"/>
<path d="M1728 3123 c-16 -2 -28 -9 -28 -14 0 -6 -4 -7 -10 -4 -5 3 -10 -1
-10 -11 0 -14 2 -14 16 -3 12 10 17 10 23 0 6 -10 10 -9 14 3 8 20 37 21 37 1
0 -22 37 -18 43 4 3 11 2 22 -1 25 -6 6 -39 6 -84 -1z"/>
<path d="M2003 3072 c-15 -9 -5 -62 14 -69 20 -8 42 15 25 26 -7 4 -12 12 -11
17 5 31 -5 41 -28 26z"/>
<path d="M3031 2986 c-23 -42 -31 -68 -31 -106 0 -33 4 -49 11 -45 5 4 8 12 6
18 -2 7 0 20 5 31 8 15 12 16 19 5 13 -21 11 -29 -7 -22 -15 5 -15 3 1 -21 18
-27 30 -25 58 9 5 6 7 3 3 -7 -3 -12 0 -18 9 -18 18 0 31 20 13 20 -8 1 -6 6
6 15 11 8 16 15 12 15 -4 0 -1 6 6 14 8 7 26 12 41 11 15 -2 29 1 33 6 3 5 13
9 24 9 14 0 17 5 13 21 -10 35 -47 68 -74 65 -42 -4 -50 -14 -43 -55 5 -33 3
-40 -20 -54 -36 -24 -46 -21 -40 12 5 23 2 29 -17 34 -22 6 -22 7 -5 26 10 11
23 18 27 15 12 -7 11 -1 -5 30 l-14 27 -31 -55z"/>
<path d="M618 3018 c-36 -13 -35 -23 2 -24 23 -1 30 3 30 17 0 11 -1 19 -2 18
-2 0 -15 -5 -30 -11z"/>
<path d="M1782 2994 c2 -11 11 -20 22 -22 13 -3 17 1 14 14 -2 11 -11 20 -22
22 -13 3 -17 -1 -14 -14z"/>
<path d="M3430 2990 c0 -5 5 -10 11 -10 5 0 7 5 4 10 -3 6 -8 10 -11 10 -2 0
-4 -4 -4 -10z"/>
<path d="M580 2945 c0 -15 18 -40 24 -34 3 3 -1 14 -9 25 -8 10 -14 15 -15 9z"/>
<path d="M920 2940 c0 -5 5 -10 10 -10 6 0 10 5 10 10 0 6 -4 10 -10 10 -5 0
-10 -4 -10 -10z"/>
<path d="M3285 2920 c3 -5 11 -10 16 -10 6 0 7 5 4 10 -3 6 -11 10 -16 10 -6
0 -7 -4 -4 -10z"/>
<path d="M637 2872 c-17 -18 -17 -20 0 -33 15 -12 16 -12 10 3 -3 9 -1 18 5
20 6 2 9 10 7 17 -3 9 -9 7 -22 -7z"/>
<path d="M961 2856 c-10 -12 -8 -13 8 -9 12 3 21 9 21 14 0 14 -16 11 -29 -5z"/>
<path d="M1008 2836 c3 -28 7 -32 17 -23 9 8 10 16 3 24 -5 7 -7 17 -3 23 3 5
0 10 -7 10 -10 0 -13 -10 -10 -34z"/>
<path d="M931 2824 c0 -11 3 -14 6 -6 3 7 2 16 -1 19 -3 4 -6 -2 -5 -13z"/>
<path d="M678 2813 c7 -3 16 -2 19 1 4 3 -2 6 -13 5 -11 0 -14 -3 -6 -6z"/>
<path d="M988 2805 c-11 -12 14 -56 29 -51 8 3 18 -5 25 -19 16 -36 28 -31 16
8 -6 17 -13 39 -15 47 -4 13 -6 12 -14 -2 -13 -24 -27 -23 -31 3 -2 11 -6 18
-10 14z"/>
<path d="M785 2780 c-3 -5 1 -10 9 -10 9 0 16 5 16 10 0 6 -4 10 -9 10 -6 0
-13 -4 -16 -10z"/>
<path d="M665 2769 c-11 -17 1 -21 15 -4 8 9 8 15 2 15 -6 0 -14 -5 -17 -11z"/>
<path d="M1851 2754 c0 -11 3 -14 6 -6 3 7 2 16 -1 19 -3 4 -6 -2 -5 -13z"/>
<path d="M1880 2746 c0 -9 5 -16 10 -16 6 0 10 4 10 9 0 6 -4 13 -10 16 -5 3
-10 -1 -10 -9z"/>
<path d="M2937 2753 c-10 -9 -9 -43 1 -43 12 0 32 23 32 37 0 14 -22 18 -33 6z"/>
<path d="M1015 2730 c3 -5 8 -10 11 -10 2 0 4 5 4 10 0 6 -5 10 -11 10 -5 0
-7 -4 -4 -10z"/>
<path d="M3031 2720 c-13 -11 -19 -20 -13 -20 10 0 42 27 42 36 0 7 -4 5 -29
-16z"/>
<path d="M915 2719 c-4 -6 -4 -13 -1 -16 8 -8 36 5 36 17 0 13 -27 13 -35 -1z"/>
<path d="M1250 2649 c0 -5 5 -7 10 -4 6 3 10 8 10 11 0 2 -4 4 -10 4 -5 0 -10
-5 -10 -11z"/>
<path d="M1390 2645 c0 -13 4 -14 20 -5 11 6 20 13 20 15 0 3 -9 5 -20 5 -11
0 -20 -7 -20 -15z"/>
<path d="M1480 2624 c0 -8 5 -12 10 -9 6 4 8 11 5 16 -9 14 -15 11 -15 -7z"/>
<path d="M1417 2595 c-10 -7 -15 -19 -11 -29 4 -9 1 -16 -6 -16 -15 0 -39 -29
-40 -47 0 -7 7 -13 15 -13 8 0 15 7 15 16 0 13 3 14 14 5 12 -10 15 -7 14 18
-1 17 7 40 16 50 21 23 8 35 -17 16z"/>
<path d="M877 2593 c-3 -5 7 -20 23 -31 35 -26 59 -30 40 -7 -7 8 -17 15 -23
15 -5 0 -15 7 -22 17 -7 9 -14 12 -18 6z"/>
<path d="M670 2579 c0 -8 9 -20 20 -27 12 -7 18 -17 15 -22 -3 -6 -1 -10 4
-10 6 0 11 12 11 27 0 14 -3 23 -7 20 -3 -4 -15 0 -25 10 -14 13 -18 13 -18 2z"/>
<path d="M2579 2583 c-1 -5 0 -21 1 -37 1 -18 -2 -26 -9 -22 -6 4 -11 14 -11
22 0 15 -18 18 -44 8 -11 -4 -14 -13 -10 -31 6 -24 5 -25 -26 -18 -32 7 -33 7
-26 -21 l7 -29 -21 21 c-21 21 -23 21 -40 4 -9 -9 -21 -35 -24 -56 -6 -31 -9
-35 -17 -21 -16 28 -32 20 -26 -13 7 -31 -7 -51 -17 -25 -9 24 -25 17 -32 -12
-10 -42 -15 -46 -29 -26 -12 16 -14 14 -20 -20 -6 -32 -10 -36 -30 -31 -27 7
-35 -14 -35 -97 0 -36 -5 -61 -14 -68 -11 -9 -12 -18 -3 -41 9 -25 8 -33 -6
-47 -20 -20 -35 -10 -18 11 8 9 10 27 6 46 -5 21 -2 35 9 46 20 20 22 94 2 94
-8 0 -16 -16 -20 -40 -7 -42 -36 -58 -36 -20 0 11 -4 20 -10 20 -15 0 -12 -38
6 -65 16 -25 13 -55 -6 -55 -5 0 -10 14 -10 30 0 20 -5 30 -15 30 -13 0 -15
-8 -9 -37 3 -21 12 -43 20 -49 16 -13 19 -44 4 -44 -5 0 -10 5 -10 10 0 6 -4
10 -10 10 -5 0 -10 -7 -10 -15 0 -18 -26 -20 -33 -2 -4 8 -6 7 -6 -4 -1 -8 6
-24 14 -35 13 -16 16 -17 25 -4 7 12 10 8 10 -17 0 -36 -6 -39 -34 -18 -26 20
-36 11 -36 -32 0 -32 2 -34 17 -22 15 12 16 12 10 -4 -4 -10 -7 -21 -7 -23 0
-2 -6 -4 -14 -4 -8 0 -16 -6 -19 -12 -2 -7 -8 -10 -12 -6 -4 4 -4 15 1 25 10
22 12 83 2 83 -3 0 -8 -6 -10 -12 -3 -8 -9 -4 -17 10 -6 12 -18 22 -26 22 -19
0 -19 -8 0 -26 18 -18 20 -70 4 -80 -11 -7 -29 13 -28 31 0 6 3 4 6 -2 7 -19
23 -16 23 5 0 19 -18 42 -32 42 -4 0 -8 -7 -8 -15 0 -8 -8 -15 -18 -15 -15 0
-18 -6 -15 -32 3 -25 2 -30 -6 -18 -8 12 -11 8 -11 -16 0 -20 -6 -34 -16 -38
-24 -9 -31 -7 -14 4 13 9 13 11 0 20 -8 5 -10 10 -5 10 13 0 -17 20 -31 20 -7
0 -11 -8 -10 -17 1 -13 -6 -18 -24 -18 -35 0 -52 -19 -44 -50 5 -19 2 -25 -10
-25 -9 0 -16 5 -16 11 0 14 -25 39 -39 39 -6 0 -11 -4 -11 -9 0 -5 -3 -18 -6
-28 -5 -15 -4 -16 5 -3 10 13 12 13 21 0 12 -19 13 -47 1 -54 -5 -3 -11 3 -14
14 -8 30 -64 28 -69 -2 -4 -29 -24 -34 -31 -8 -3 11 -10 20 -17 20 -13 0 -3
-43 11 -48 5 -2 9 -12 9 -21 0 -26 28 -78 45 -85 8 -3 15 -1 15 4 0 6 -4 10
-9 10 -13 0 -21 53 -10 65 5 5 10 23 10 40 2 30 2 30 6 2 2 -15 13 -31 23 -37
12 -7 16 -17 13 -31 -6 -21 -6 -21 -20 5 -7 14 -16 26 -18 26 -12 0 -4 -40 11
-54 8 -9 13 -20 9 -26 -3 -5 -2 -26 4 -45 12 -46 -1 -45 -29 3 -15 24 -25 32
-28 23 -6 -19 27 -81 44 -81 17 0 27 -17 14 -25 -18 -11 -92 71 -92 102 0 25
-1 26 -14 8 -18 -25 -18 -55 0 -55 8 0 16 -10 18 -22 2 -13 8 -22 13 -21 6 1
18 -12 29 -28 13 -22 22 -27 31 -19 9 8 12 -3 14 -47 1 -35 7 -60 16 -67 8 -6
16 -32 18 -58 2 -26 10 -54 17 -63 9 -10 9 -15 1 -15 -14 0 -3 -112 13 -122
18 -12 29 -9 22 7 -6 17 9 21 20 4 3 -6 1 -16 -5 -22 -16 -16 -14 -44 5 -51
10 -4 13 -13 9 -26 -5 -16 -2 -20 14 -20 28 0 28 34 -1 54 l-22 16 22 0 c14 0
22 6 22 18 1 28 40 -25 40 -54 0 -15 6 -24 15 -24 8 0 15 -7 15 -15 0 -13 -4
-14 -20 -5 -26 14 -50 6 -73 -25 -17 -24 -17 -24 15 -41 l32 -17 -16 26 c-16
23 -15 37 3 37 4 0 12 -14 18 -30 5 -17 16 -30 22 -30 10 0 10 3 1 12 -18 18
-15 28 9 28 11 0 17 -5 14 -10 -3 -6 3 -27 14 -48 10 -20 22 -46 26 -57 7 -19
7 -19 16 3 5 13 14 20 20 17 8 -5 8 -10 0 -18 -15 -15 -14 -30 3 -24 7 3 19 0
25 -6 7 -7 17 -12 24 -12 7 0 11 -10 9 -24 -2 -15 0 -21 7 -17 6 4 11 3 11 -2
0 -19 50 -20 60 -2 5 10 16 20 25 24 23 8 66 -12 72 -34 3 -11 10 -17 15 -14
5 3 15 -2 23 -12 13 -18 14 -18 32 -1 24 21 40 23 23 2 -7 -9 -10 -19 -6 -23
4 -4 13 1 20 11 7 9 21 17 30 17 9 0 16 5 16 10 0 6 7 10 15 10 19 0 19 14 0
30 -13 10 -13 15 -3 21 7 4 13 18 13 30 0 12 5 24 12 26 8 3 10 -8 6 -36 -5
-40 7 -56 23 -30 4 8 9 7 14 -2 13 -21 98 -39 111 -23 7 9 5 14 -10 19 -28 9
-26 23 4 37 14 6 25 17 25 25 0 7 5 13 10 13 6 0 10 -4 10 -9 0 -5 10 -7 23
-4 l22 5 -23 -19 c-21 -17 -22 -21 -8 -32 14 -12 11 -46 -4 -36 -4 2 -15 -4
-24 -14 -16 -17 -16 -19 5 -24 24 -6 49 13 49 37 0 9 5 16 10 16 6 0 10 -10
10 -22 0 -21 0 -21 21 -2 20 18 20 18 14 -11 -4 -17 -15 -44 -25 -60 -14 -25
-14 -33 -4 -43 7 -7 20 -12 28 -12 8 0 16 -6 19 -12 3 -9 19 -3 50 20 25 17
50 32 56 32 6 0 11 6 11 14 0 8 7 16 15 20 13 4 13 2 5 -14 -13 -25 2 -33 35
-18 15 6 24 17 21 25 -4 9 3 13 19 13 25 0 35 -23 15 -35 -5 -3 -10 -11 -10
-17 0 -6 12 2 27 17 27 26 27 27 8 41 -10 8 -27 14 -37 14 -25 0 -22 16 4 23
21 6 32 -2 41 -28 2 -5 15 -2 30 8 33 22 37 21 37 -3 0 -11 -4 -20 -10 -20 -5
0 -10 -7 -10 -16 0 -9 5 -12 12 -8 8 5 9 2 3 -12 -4 -10 -10 -29 -12 -41 -3
-12 -14 -25 -24 -28 -33 -11 -9 -27 30 -21 97 17 93 15 87 51 -6 31 -5 34 21
37 25 3 28 7 28 38 0 29 3 34 19 32 11 -2 17 1 14 10 -3 7 -19 14 -37 16 -26
3 -34 -1 -38 -17 -3 -12 -9 -21 -14 -21 -16 0 -10 16 14 38 24 23 67 30 67 11
0 -5 8 -9 18 -8 9 1 25 -2 36 -6 32 -14 39 17 8 43 -23 20 -28 21 -38 8 -14
-20 -24 -20 -24 -1 0 15 -24 16 -47 2 -7 -5 -13 -4 -13 1 0 17 49 35 78 29 26
-5 31 -3 36 18 7 26 25 32 43 14 8 -8 15 -4 27 12 11 16 12 25 5 30 -8 5 -8 9
0 14 7 4 11 16 9 27 -2 12 3 23 10 25 6 3 12 0 12 -6 0 -6 9 -11 19 -11 11 0
21 -6 24 -12 3 -9 9 -7 20 7 14 18 14 20 -3 23 -10 2 -20 14 -23 30 -6 30 -2
37 31 47 21 6 23 5 13 -13 -16 -30 -14 -33 14 -20 14 6 25 15 25 20 0 4 5 8
10 8 6 0 10 -7 10 -15 0 -8 7 -15 15 -15 8 0 15 -4 15 -10 0 -13 -13 -13 -26
0 -17 17 -44 0 -44 -29 -1 -14 -7 -43 -14 -64 -14 -37 -13 -38 7 -35 22 3 22
5 26 83 1 17 8 20 51 20 28 1 50 -3 50 -7 0 -14 -41 -29 -62 -23 -15 5 -19 3
-16 -6 3 -8 18 -14 34 -15 70 -1 84 -4 84 -19 0 -10 -11 -15 -35 -15 -19 0
-35 -4 -35 -10 0 -5 7 -7 15 -3 9 3 24 -2 34 -11 15 -14 20 -14 30 -3 6 8 9
21 6 29 -4 10 1 17 14 21 27 7 27 32 0 51 -21 14 -21 14 9 30 33 17 50 46 27
46 -8 0 -15 -5 -15 -11 0 -5 -5 -7 -11 -4 -5 4 -18 0 -27 -8 -20 -16 -72 -31
-72 -20 0 16 16 28 35 28 14 0 19 6 17 19 -3 15 1 18 22 14 17 -3 26 -1 26 7
0 24 29 39 53 27 21 -10 21 -11 -6 -11 -38 -1 -25 -19 21 -27 20 -4 49 -13 64
-20 31 -16 68 -18 68 -4 0 5 -12 12 -27 16 -16 3 -34 7 -41 10 -20 6 -26 35
-13 56 11 17 8 21 -28 36 -68 28 -48 44 39 31 83 -13 89 -14 102 -27 7 -7 18
-12 25 -12 16 0 84 -66 76 -74 -3 -3 -15 1 -27 9 -23 16 -66 20 -66 6 0 -11
30 -25 47 -22 7 1 10 -4 7 -13 -3 -8 -1 -17 5 -21 16 -9 51 4 51 20 0 20 19
28 35 15 8 -7 15 -7 19 -1 7 11 0 17 -64 48 -42 21 -43 22 -17 23 18 0 51 -16
86 -40 68 -48 86 -51 69 -14 -8 17 -18 24 -30 21 -10 -3 -18 0 -18 7 0 23 -37
48 -59 41 -24 -7 -27 0 -7 20 7 8 17 11 21 7 5 -4 5 1 2 10 -3 10 -2 20 4 24
6 4 6 11 -2 20 -8 10 -8 14 0 14 14 0 32 -45 25 -63 -2 -7 9 -23 26 -35 16
-13 30 -18 30 -12 0 19 -49 109 -71 129 -14 13 -20 27 -16 40 3 12 1 24 -4 27
-5 3 -9 -10 -9 -28 0 -25 -3 -29 -10 -18 -16 25 -12 80 5 80 13 0 12 7 -7 43
-21 41 -22 41 -29 17 -6 -23 -7 -23 -8 -3 -1 29 -19 39 -28 16 -13 -37 -24
-44 -41 -26 -16 15 -17 15 -20 0 -5 -22 -10 -21 -33 5 -13 16 -18 39 -19 76 0
33 -4 51 -10 47 -16 -10 -12 43 6 70 9 14 14 32 10 40 -6 17 -36 21 -36 4 0
-5 -5 -7 -10 -4 -6 4 -8 15 -5 26 8 23 -6 24 -46 3 -17 -8 -36 -13 -42 -11 -7
3 0 8 16 12 21 6 27 13 27 36 0 22 -5 29 -20 29 -14 0 -18 5 -13 16 4 12 2 15
-8 12 -8 -2 -15 -16 -17 -30 -3 -21 -7 -24 -27 -20 -19 3 -28 -2 -42 -27 -10
-17 -21 -31 -24 -31 -10 0 -41 50 -48 76 -4 16 -10 21 -19 15 -9 -5 -10 -15
-3 -33 7 -19 6 -29 -5 -40 -8 -8 -12 -22 -8 -31 8 -21 24 -22 24 -2 0 8 7 15
15 15 9 0 12 -6 8 -17 -19 -55 -49 -56 -58 -3 -4 22 -11 42 -16 46 -15 9 -10
24 6 18 10 -4 15 0 15 11 0 12 -5 15 -20 10 -18 -6 -65 16 -56 26 3 3 8 26 11
52 6 44 5 47 -15 47 -18 0 -21 4 -16 24 4 18 1 25 -14 29 -11 3 -20 10 -20 16
0 6 6 8 14 5 26 -10 28 17 3 42 -24 23 -26 24 -35 7 -15 -27 -23 -11 -9 17 7
14 19 25 27 25 8 0 21 4 28 8 6 5 17 5 22 2 6 -3 10 -1 10 5 0 16 -30 24 -43
11 -13 -13 -31 -15 -22 -2 3 5 0 13 -6 16 -6 4 -8 18 -5 30 5 20 2 24 -21 27
-14 2 -29 10 -31 18 -5 13 -3 13 12 0 16 -12 20 -11 37 10 23 30 19 46 -9 42
-16 -2 -20 1 -16 12 11 29 -8 40 -26 16 l-17 -23 2 37 c2 25 -1 39 -11 43 -8
3 -14 13 -14 23 0 22 -16 35 -25 20 -11 -18 -20 -11 -21 18 -1 25 2 28 23 24
23 -4 28 4 17 31 -4 11 -12 13 -34 7 -24 -7 -34 -2 -76 37 -45 41 -47 46 -29
54 19 8 19 8 -2 15 -13 3 -20 11 -17 16 3 5 -3 12 -15 15 -11 3 -19 9 -16 13
8 14 -68 70 -86 65 -10 -3 -19 1 -23 10 -3 9 -14 15 -23 13 -10 -2 -17 2 -15
10 1 6 -4 12 -12 12 -8 0 -16 -6 -19 -12 -3 -10 -7 -10 -20 0 -8 7 -34 13 -56
14 -23 0 -44 4 -47 9 -9 15 -42 10 -49 -8 -6 -17 -7 -17 -19 0 -14 18 -25 22
-27 10z m-254 -293 c3 -5 1 -10 -4 -10 -6 0 -11 5 -11 10 0 6 2 10 4 10 3 0 8
-4 11 -10z m-26 -74 c-6 -6 -9 -4 -9 6 0 9 -4 18 -9 20 -5 2 -4 14 2 28 10 25
10 25 18 -10 4 -20 4 -39 -2 -44z m-523 -451 c13 -40 3 -47 -14 -10 -14 30
-15 45 -4 45 4 0 12 -16 18 -35z m144 -95 c0 -5 -4 -10 -10 -10 -5 0 -10 5
-10 10 0 6 5 10 10 10 6 0 10 -4 10 -10z m-5 -30 c3 -5 1 -10 -4 -10 -6 0 -11
5 -11 10 0 6 2 10 4 10 3 0 8 -4 11 -10z m115 -45 c-7 -9 -15 -13 -17 -11 -7
7 7 26 19 26 6 0 6 -6 -2 -15z m-137 -2 c4 -3 0 -14 -9 -24 -10 -11 -15 -28
-12 -44 4 -17 1 -24 -6 -22 -6 3 -10 10 -8 16 1 6 -5 11 -14 11 -10 0 -14 -6
-11 -14 4 -10 1 -13 -9 -9 -19 7 -18 16 7 33 35 25 49 41 44 51 -7 10 8 12 18
2z m346 -6 c8 -10 7 -17 -1 -25 -19 -19 -28 -14 -28 13 0 27 12 32 29 12z m96
-56 c-3 -3 -10 1 -16 9 -8 13 -12 12 -24 -4 -14 -19 -15 -19 -15 6 0 33 41 44
53 14 4 -10 5 -21 2 -25z m61 12 c-10 -10 -19 5 -10 18 6 11 8 11 12 0 2 -7 1
-15 -2 -18z m-491 -13 c3 -5 1 -10 -4 -10 -6 0 -11 5 -11 10 0 6 2 10 4 10 3
0 8 -4 11 -10z m195 -50 c0 -5 -5 -10 -11 -10 -5 0 -7 5 -4 10 3 6 8 10 11 10
2 0 4 -4 4 -10z m-278 -32 c-7 -7 -12 -8 -12 -2 0 6 3 14 7 17 3 4 9 5 12 2 2
-3 -1 -11 -7 -17z m401 -2 c25 -19 21 -26 -8 -13 -14 7 -25 15 -25 20 0 11 13
8 33 -7z m-423 -6 c0 -5 -7 -10 -16 -10 -8 0 -12 5 -9 10 3 6 10 10 16 10 5 0
9 -4 9 -10z m500 -4 c0 -3 -4 -8 -10 -11 -5 -3 -10 -1 -10 4 0 6 5 11 10 11 6
0 10 -2 10 -4z m13 -51 c39 -6 45 -22 14 -37 -44 -21 -52 -27 -50 -36 2 -6 -9
-6 -27 1 -37 14 -39 26 -4 19 20 -4 25 -1 22 9 -3 8 -14 13 -24 12 -14 -1 -19
5 -20 23 -2 22 1 25 25 20 14 -2 43 -7 64 -11z m-523 -5 c0 -5 -7 -10 -15 -10
-8 0 -15 5 -15 10 0 6 7 10 15 10 8 0 15 -4 15 -10z m50 -15 c0 -9 -6 -12 -15
-9 -8 4 -12 10 -9 15 8 14 24 10 24 -6z m260 -10 c-7 -8 -24 -15 -39 -14 -24
0 -24 1 9 14 45 17 44 17 30 0z m75 5 c3 -5 1 -10 -4 -10 -6 0 -11 5 -11 10 0
6 2 10 4 10 3 0 8 -4 11 -10z m1475 0 c0 -5 -2 -10 -4 -10 -3 0 -8 5 -11 10
-3 6 -1 10 4 10 6 0 11 -4 11 -10z m35 0 c3 -5 1 -10 -4 -10 -6 0 -11 5 -11
10 0 6 2 10 4 10 3 0 8 -4 11 -10z m-1945 -10 c0 -5 -2 -10 -4 -10 -3 0 -8 5
-11 10 -3 6 -1 10 4 10 6 0 11 -4 11 -10z m230 0 c0 -5 -2 -10 -4 -10 -3 0 -8
5 -11 10 -3 6 -1 10 4 10 6 0 11 -4 11 -10z m-170 -20 c0 -5 -4 -10 -10 -10
-5 0 -10 5 -10 10 0 6 5 10 10 10 6 0 10 -4 10 -10z m400 0 c0 -5 -7 -10 -16
-10 -8 0 -12 5 -9 10 3 6 10 10 16 10 5 0 9 -4 9 -10z m-260 -10 c0 -5 -5 -10
-11 -10 -5 0 -7 5 -4 10 3 6 8 10 11 10 2 0 4 -4 4 -10z m180 0 c0 -5 -2 -10
-4 -10 -3 0 -8 5 -11 10 -3 6 -1 10 4 10 6 0 11 -4 11 -10z m171 -34 c-12 -7
-18 -15 -15 -19 4 -4 0 -7 -9 -7 -24 0 -21 21 3 27 11 3 20 10 20 15 0 5 5 6
11 2 8 -4 4 -11 -10 -18z m105 9 c10 -8 14 -15 7 -15 -19 0 -43 11 -43 21 0
13 14 11 36 -6z m-276 1 c0 -3 -4 -8 -10 -11 -5 -3 -10 -1 -10 4 0 6 5 11 10
11 6 0 10 -2 10 -4z m357 -32 c-9 -10 -38 16 -31 28 4 6 13 4 22 -6 9 -8 13
-19 9 -22z m23 26 c0 -5 -2 -10 -4 -10 -3 0 -8 5 -11 10 -3 6 -1 10 4 10 6 0
11 -4 11 -10z m-310 -60 c0 -5 -5 -10 -11 -10 -5 0 -7 5 -4 10 3 6 8 10 11 10
2 0 4 -4 4 -10z m241 -9 c-12 -8 -12 -13 -3 -24 10 -12 8 -13 -13 -9 -14 2
-25 7 -25 11 0 13 24 31 40 31 13 0 13 -2 1 -9z m-91 -15 c0 -3 -4 -8 -10 -11
-5 -3 -10 -1 -10 4 0 6 5 11 10 11 6 0 10 -2 10 -4z m-200 -16 c0 -5 -4 -10
-10 -10 -5 0 -10 5 -10 10 0 6 5 10 10 10 6 0 10 -4 10 -10z m384 -6 c10 -25
1 -27 -19 -4 -15 17 -16 20 -3 20 9 0 19 -7 22 -16z m-49 -4 c3 -5 2 -10 -4
-10 -5 0 -13 5 -16 10 -3 6 -2 10 4 10 5 0 13 -4 16 -10z m-75 -10 c11 -7 3
-10 -28 -10 -53 0 -47 -17 9 -26 31 -5 37 -9 28 -20 -9 -11 -15 -11 -32 1 -12
8 -38 15 -58 15 -32 0 -36 3 -32 19 7 27 82 41 113 21z m-225 -50 c-3 -5 -19
-4 -35 2 -17 5 -28 14 -25 18 3 5 19 4 35 -2 17 -5 28 -14 25 -18z m332 13 c3
-7 -3 -9 -17 -6 -29 8 -37 25 -9 21 12 -1 24 -8 26 -15z m51 -1 c2 -7 -2 -10
-12 -6 -9 3 -16 11 -16 16 0 13 23 5 28 -10z m-874 -24 c-1 -13 -3 -32 -4 -43
l-1 -20 -9 20 c-13 31 -11 65 3 65 8 0 13 -9 11 -22z m2191 -18 c3 -5 2 -10
-4 -10 -5 0 -13 5 -16 10 -3 6 -2 10 4 10 5 0 13 -4 16 -10z m-2054 -35 c10 4
14 -4 14 -30 0 -42 -19 -65 -37 -46 -11 10 -10 14 5 22 26 15 20 30 -10 23
-22 -6 -25 -4 -20 10 4 10 7 22 7 28 0 7 5 6 14 -1 7 -6 20 -9 27 -6z m1440
-58 c10 3 19 0 19 -6 0 -12 -29 -15 -54 -5 -19 7 -21 25 -3 43 10 10 13 7 15
-12 2 -19 8 -24 23 -20z m-71 19 c0 -2 -7 -9 -15 -16 -12 -10 -15 -10 -15 4 0
9 7 16 15 16 8 0 15 -2 15 -4z m270 -21 c-7 -9 -15 -13 -19 -10 -3 3 1 10 9
15 21 14 24 12 10 -5z m-60 1 c0 -11 -19 -15 -25 -6 -3 5 1 10 9 10 9 0 16 -2
16 -4z m-1530 -30 c0 -3 -4 -8 -10 -11 -5 -3 -10 -1 -10 4 0 6 5 11 10 11 6 0
10 -2 10 -4z m1200 -11 c10 -12 9 -15 -8 -15 -11 0 -22 7 -26 15 -3 9 0 15 8
15 7 0 19 -7 26 -15z m377 -1 c-3 -3 -12 -4 -19 -1 -8 3 -5 6 6 6 11 1 17 -2
13 -5z m-457 -39 c-7 -8 -17 -15 -23 -15 -5 0 -2 9 8 20 21 23 35 19 15 -5z
m-850 11 c0 -3 -4 -8 -10 -11 -5 -3 -10 -1 -10 4 0 6 5 11 10 11 6 0 10 -2 10
-4z m-160 -16 c0 -5 -4 -10 -10 -10 -5 0 -10 5 -10 10 0 6 5 10 10 10 6 0 10
-4 10 -10z m80 6 c0 -3 -4 -8 -10 -11 -5 -3 -10 -1 -10 4 0 6 5 11 10 11 6 0
10 -2 10 -4z m1040 -16 c0 -5 -4 -10 -10 -10 -5 0 -10 5 -10 10 0 6 5 10 10
10 6 0 10 -4 10 -10z m-840 -4 c0 -3 -4 -8 -10 -11 -5 -3 -10 -1 -10 4 0 6 5
11 10 11 6 0 10 -2 10 -4z m-246 -28 c-4 -6 1 -8 14 -4 11 4 23 3 26 -2 3 -6
-4 -12 -17 -16 -34 -9 -37 -8 -37 20 0 14 4 23 10 19 6 -4 7 -11 4 -17z m93 0
c-3 -8 -6 -5 -6 6 -1 11 2 17 5 13 3 -3 4 -12 1 -19z m728 12 c-3 -5 5 -12 19
-16 16 -4 23 -11 19 -20 -3 -8 0 -14 6 -14 16 0 14 -27 -2 -33 -9 -3 -18 8
-26 29 -7 19 -17 34 -22 34 -5 0 -9 7 -9 15 0 8 5 15 11 15 5 0 7 -4 4 -10z
m115 -10 c0 -5 -4 -10 -10 -10 -5 0 -10 5 -10 10 0 6 5 10 10 10 6 0 10 -4 10
-10z m77 -42 c-3 -8 -6 -5 -6 6 -1 11 2 17 5 13 3 -3 4 -12 1 -19z m68 12 c7
-11 -18 -40 -34 -40 -7 0 -7 8 1 25 12 27 23 31 33 15z m-625 -54 c-5 -5 -10
-16 -10 -24 0 -15 -28 -41 -44 -42 -5 0 -2 8 6 18 9 9 19 32 23 50 6 27 9 31
21 21 10 -8 12 -15 4 -23z m690 24 c0 -14 -39 -32 -52 -24 -7 4 -2 12 13 20
29 16 39 17 39 4z m-810 -19 c0 -5 9 -7 20 -4 12 3 20 0 20 -6 0 -16 -52 -10
-58 7 -2 6 1 12 7 12 6 0 11 -4 11 -9z m417 -27 c-9 -9 -28 6 -21 18 4 6 10 6
17 -1 6 -6 8 -13 4 -17z m-527 -4 c0 -5 -4 -10 -10 -10 -5 0 -10 5 -10 10 0 6
5 10 10 10 6 0 10 -4 10 -10z m350 1 c0 -6 -4 -13 -10 -16 -5 -3 -10 1 -10 9
0 9 5 16 10 16 6 0 10 -4 10 -9z m406 -28 c-10 -10 -19 5 -10 18 6 11 8 11 12
0 2 -7 1 -15 -2 -18z m-115 -13 c12 0 12 -37 -1 -45 -5 -3 -10 3 -10 15 0 11
-7 23 -15 26 -13 5 -13 9 -3 22 12 13 13 13 16 -1 2 -10 8 -17 13 -17z m-631
10 c0 -5 -7 -10 -15 -10 -8 0 -15 5 -15 10 0 6 7 10 15 10 8 0 15 -4 15 -10z
m700 -11 c0 -5 -7 -9 -15 -9 -15 0 -20 12 -9 23 8 8 24 -1 24 -14z m-145 1
c-3 -5 -15 -10 -26 -10 -10 0 -19 5 -19 10 0 6 12 10 26 10 14 0 23 -4 19 -10z
m215 -10 c0 -5 -9 -14 -20 -20 -15 -8 -20 -8 -20 3 0 8 3 17 7 20 10 10 33 8
33 -3z m-320 -10 c0 -5 -5 -10 -11 -10 -5 0 -7 5 -4 10 3 6 8 10 11 10 2 0 4
-4 4 -10z m-60 -10 c0 -5 -5 -10 -11 -10 -5 0 -7 5 -4 10 3 6 8 10 11 10 2 0
4 -4 4 -10z m150 -32 c0 -19 -2 -20 -10 -8 -13 19 -13 30 0 30 6 0 10 -10 10
-22z m130 8 c0 -3 -4 -8 -10 -11 -5 -3 -10 -1 -10 4 0 6 5 11 10 11 6 0 10 -2
10 -4z m-246 -72 c21 -20 21 -21 -13 -39 -28 -14 -30 -14 -36 5 -6 18 11 49
27 50 4 0 14 -7 22 -16z"/>
<path d="M1011 2544 c-16 -19 -15 -19 33 -33 51 -13 57 -7 23 24 -30 29 -37
30 -56 9z"/>
<path d="M1340 2550 c0 -5 7 -10 16 -10 8 0 12 5 9 10 -3 6 -10 10 -16 10 -5
0 -9 -4 -9 -10z"/>
<path d="M1470 2550 c0 -5 5 -10 11 -10 5 0 7 5 4 10 -3 6 -8 10 -11 10 -2 0
-4 -4 -4 -10z"/>
<path d="M900 2520 c0 -5 5 -10 10 -10 6 0 10 5 10 10 0 6 -4 10 -10 10 -5 0
-10 -4 -10 -10z"/>
<path d="M960 2519 c0 -5 5 -7 10 -4 6 3 10 8 10 11 0 2 -4 4 -10 4 -5 0 -10
-5 -10 -11z"/>
<path d="M1510 2515 c0 -8 7 -15 16 -15 14 0 14 3 4 15 -7 8 -14 15 -16 15 -2
0 -4 -7 -4 -15z"/>
<path d="M1428 2503 c-6 -22 7 -52 17 -41 4 4 3 19 -2 35 -9 25 -10 26 -15 6z"/>
<path d="M992 2498 c5 -15 28 -23 28 -10 0 5 -7 13 -16 16 -10 4 -14 1 -12 -6z"/>
<path d="M1280 2503 c0 -15 29 -49 30 -35 0 7 -7 20 -15 28 -8 9 -15 11 -15 7z"/>
<path d="M1330 2470 c0 -5 5 -10 11 -10 5 0 7 5 4 10 -3 6 -8 10 -11 10 -2 0
-4 -4 -4 -10z"/>
<path d="M915 2460 c-3 -5 -1 -10 4 -10 6 0 11 5 11 10 0 6 -2 10 -4 10 -3 0
-8 -4 -11 -10z"/>
<path d="M1095 2440 c-3 -5 3 -10 14 -10 11 0 23 5 26 10 3 6 -3 10 -14 10
-11 0 -23 -4 -26 -10z"/>
<path d="M1695 2440 c-3 -5 1 -10 10 -10 9 0 13 5 10 10 -3 6 -8 10 -10 10 -2
0 -7 -4 -10 -10z"/>
<path d="M1977 2433 c-4 -3 -7 -13 -7 -22 1 -13 3 -13 11 2 11 19 8 33 -4 20z"/>
<path d="M1165 2420 c3 -5 10 -10 16 -10 5 0 9 5 9 10 0 6 -7 10 -16 10 -8 0
-12 -4 -9 -10z"/>
<path d="M1650 2380 c0 -5 5 -10 10 -10 6 0 10 5 10 10 0 6 -4 10 -10 10 -5 0
-10 -4 -10 -10z"/>
<path d="M3405 2380 c-3 -5 -1 -10 4 -10 6 0 11 5 11 10 0 6 -2 10 -4 10 -3 0
-8 -4 -11 -10z"/>
<path d="M1550 2349 c0 -5 5 -7 10 -4 6 3 10 8 10 11 0 2 -4 4 -10 4 -5 0 -10
-5 -10 -11z"/>
<path d="M3310 2349 c0 -11 30 -12 48 0 9 5 3 8 -17 9 -17 0 -31 -4 -31 -9z"/>
<path d="M1706 2322 c-3 -6 -1 -14 5 -17 14 -9 20 -2 10 14 -6 8 -11 9 -15 3z"/>
<path d="M3270 2313 c-42 -18 -29 -27 24 -16 31 7 36 11 25 20 -11 9 -22 8
-49 -4z"/>
<path d="M3341 2268 c-46 -48 -51 -63 -18 -54 12 3 33 6 46 6 14 0 37 15 58
37 32 33 34 38 17 44 -40 16 -62 8 -103 -33z m69 -7 c0 -5 -7 -14 -15 -21 -16
-14 -18 -10 -9 14 6 17 24 22 24 7z"/>
<path d="M1695 2230 c3 -5 8 -10 11 -10 2 0 4 5 4 10 0 6 -5 10 -11 10 -5 0
-7 -4 -4 -10z"/>
<path d="M1971 2224 c0 -11 3 -14 6 -6 3 7 2 16 -1 19 -3 4 -6 -2 -5 -13z"/>
<path d="M3405 2180 c3 -5 11 -10 16 -10 6 0 7 5 4 10 -3 6 -11 10 -16 10 -6
0 -7 -4 -4 -10z"/>
<path d="M3330 2169 c0 -5 5 -7 10 -4 6 3 10 8 10 11 0 2 -4 4 -10 4 -5 0 -10
-5 -10 -11z"/>
<path d="M1630 2140 c0 -5 5 -10 11 -10 5 0 7 5 4 10 -3 6 -8 10 -11 10 -2 0
-4 -4 -4 -10z"/>
<path d="M1225 2120 c3 -5 8 -10 11 -10 2 0 4 5 4 10 0 6 -5 10 -11 10 -5 0
-7 -4 -4 -10z"/>
<path d="M3307 2095 c-7 -23 -3 -61 6 -57 4 1 12 2 18 2 8 0 8 4 1 13 -5 6
-12 23 -14 37 -3 23 -4 23 -11 5z"/>
<path d="M1840 2079 c0 -11 4 -18 10 -14 5 3 7 12 3 20 -7 21 -13 19 -13 -6z"/>
<path d="M1955 2070 c-3 -5 -1 -10 4 -10 6 0 11 5 11 10 0 6 -2 10 -4 10 -3 0
-8 -4 -11 -10z"/>
<path d="M1036 2061 c-4 -7 -5 -15 -2 -18 9 -9 19 4 14 18 -4 11 -6 11 -12 0z"/>
<path d="M2011 2057 c-8 -10 -7 -19 4 -33 14 -18 14 -17 15 14 0 36 -2 38 -19
19z"/>
<path d="M1870 2000 c0 -5 5 -10 10 -10 6 0 10 5 10 10 0 6 -4 10 -10 10 -5 0
-10 -4 -10 -10z"/>
<path d="M4290 2000 c0 -5 5 -10 11 -10 5 0 7 5 4 10 -3 6 -8 10 -11 10 -2 0
-4 -4 -4 -10z"/>
<path d="M760 1981 c0 -6 5 -13 10 -16 6 -3 10 1 10 9 0 9 -4 16 -10 16 -5 0
-10 -4 -10 -9z"/>
<path d="M1905 1980 c-3 -5 1 -10 10 -10 9 0 13 5 10 10 -3 6 -8 10 -10 10 -2
0 -7 -4 -10 -10z"/>
<path d="M3480 1970 c0 -5 5 -10 11 -10 5 0 7 5 4 10 -3 6 -8 10 -11 10 -2 0
-4 -4 -4 -10z"/>
<path d="M3586 1955 c-3 -8 -1 -15 4 -15 6 0 10 7 10 15 0 8 -2 15 -4 15 -2 0
-6 -7 -10 -15z"/>
<path d="M4222 1943 c-10 -23 -10 -30 3 -43 14 -13 17 -13 25 0 12 18 9 62 -5
67 -5 1 -16 -9 -23 -24z"/>
<path d="M3356 1945 c-10 -27 -7 -35 15 -35 15 0 20 5 17 22 -4 27 -23 35 -32
13z"/>
<path d="M1207 1943 c-4 -3 -7 -11 -7 -17 0 -6 5 -5 12 2 6 6 9 14 7 17 -3 3
-9 2 -12 -2z"/>
<path d="M1780 1940 c0 -5 5 -10 10 -10 6 0 10 5 10 10 0 6 -4 10 -10 10 -5 0
-10 -4 -10 -10z"/>
<path d="M1400 1925 c-7 -9 -8 -15 -2 -15 5 0 12 7 16 15 3 8 4 15 2 15 -2 0
-9 -7 -16 -15z"/>
<path d="M1830 1909 c0 -5 5 -7 10 -4 6 3 10 8 10 11 0 2 -4 4 -10 4 -5 0 -10
-5 -10 -11z"/>
<path d="M1155 1900 c4 -6 11 -8 16 -5 14 9 11 15 -7 15 -8 0 -12 -5 -9 -10z"/>
<path d="M1360 1895 c0 -5 5 -17 10 -25 5 -8 10 -10 10 -5 0 6 -5 17 -10 25
-5 8 -10 11 -10 5z"/>
<path d="M1715 1880 c-3 -5 1 -10 9 -10 9 0 16 5 16 10 0 6 -4 10 -9 10 -6 0
-13 -4 -16 -10z"/>
<path d="M3425 1869 c-10 -15 1 -23 20 -15 9 3 13 10 10 16 -8 13 -22 13 -30
-1z"/>
<path d="M4080 1868 c0 -18 18 -34 28 -24 3 4 -2 14 -11 23 -16 16 -17 16 -17
1z"/>
<path d="M1485 1860 c3 -5 8 -10 11 -10 2 0 4 5 4 10 0 6 -5 10 -11 10 -5 0
-7 -4 -4 -10z"/>
<path d="M517 1839 c-3 -12 0 -22 9 -26 9 -3 12 -13 9 -24 -4 -11 -2 -19 4
-19 15 0 14 33 -1 48 -8 8 -8 15 2 27 10 12 10 15 -3 15 -8 0 -17 -9 -20 -21z"/>
<path d="M1720 1840 c0 -5 4 -10 9 -10 6 0 13 5 16 10 3 6 -1 10 -9 10 -9 0
-16 -4 -16 -10z"/>
<path d="M3353 1822 c-13 -2 -23 -7 -23 -12 0 -12 50 -19 56 -8 9 14 -8 25
-33 20z"/>
<path d="M3437 1823 c-24 -24 12 -83 51 -83 8 0 24 -8 37 -19 l24 -18 -25 -12
c-31 -14 -34 -14 -34 -1 0 6 7 10 16 10 14 0 14 2 3 16 -26 31 -137 4 -126
-30 6 -18 27 -18 27 -1 0 12 5 15 16 11 9 -3 24 -6 35 -6 15 0 17 -5 12 -31
-6 -31 -6 -31 28 -24 40 8 80 42 78 65 -1 8 3 28 10 44 14 36 8 43 -24 28 -32
-15 -102 -5 -109 15 -5 12 -1 14 20 9 27 -7 58 9 48 25 -6 10 -77 12 -87 2z
m126 -83 c-3 -11 -7 -20 -9 -20 -2 0 -4 9 -4 20 0 11 4 20 9 20 5 0 7 -9 4
-20z"/>
<path d="M630 1810 c0 -5 5 -10 10 -10 6 0 10 5 10 10 0 6 -4 10 -10 10 -5 0
-10 -4 -10 -10z"/>
<path d="M381 1774 c0 -11 3 -14 6 -6 3 7 2 16 -1 19 -3 4 -6 -2 -5 -13z"/>
<path d="M3376 1755 c4 -8 17 -15 30 -15 15 0 24 6 24 15 0 10 -10 15 -30 15
-22 0 -28 -4 -24 -15z"/>
<path d="M1535 1730 c3 -5 10 -10 16 -10 5 0 9 5 9 10 0 6 -7 10 -16 10 -8 0
-12 -4 -9 -10z"/>
<path d="M3605 1730 c-3 -5 -4 -14 0 -20 8 -13 35 -1 35 16 0 16 -26 19 -35 4z"/>
<path d="M3365 1720 c3 -5 8 -10 11 -10 2 0 4 5 4 10 0 6 -5 10 -11 10 -5 0
-7 -4 -4 -10z"/>
<path d="M477 1680 c3 -11 7 -20 9 -20 2 0 4 9 4 20 0 11 -4 20 -9 20 -5 0 -7
-9 -4 -20z"/>
<path d="M422 1668 c6 -18 28 -21 28 -4 0 9 -7 16 -16 16 -9 0 -14 -5 -12 -12z"/>
<path d="M3365 1660 c-3 -5 -1 -10 4 -10 6 0 11 5 11 10 0 6 -2 10 -4 10 -3 0
-8 -4 -11 -10z"/>
<path d="M1470 1624 c0 -14 4 -23 10 -19 6 3 10 -3 10 -14 0 -12 5 -21 10 -21
14 0 13 12 -6 48 -19 39 -24 40 -24 6z"/>
<path d="M1372 1619 c2 -7 10 -15 17 -17 8 -3 12 1 9 9 -2 7 -10 15 -17 17 -8
3 -12 -1 -9 -9z"/>
<path d="M4115 1620 c3 -5 10 -10 16 -10 5 0 9 5 9 10 0 6 -7 10 -16 10 -8 0
-12 -4 -9 -10z"/>
<path d="M415 1601 c-3 -5 -1 -12 5 -16 5 -3 10 1 10 9 0 18 -6 21 -15 7z"/>
<path d="M1430 1594 c0 -8 5 -12 10 -9 6 4 8 11 5 16 -9 14 -15 11 -15 -7z"/>
<path d="M1348 1583 c7 -3 16 -2 19 1 4 3 -2 6 -13 5 -11 0 -14 -3 -6 -6z"/>
<path d="M380 1559 c7 -11 14 -18 17 -15 8 8 -5 36 -17 36 -7 0 -7 -6 0 -21z"/>
<path d="M1390 1560 c0 -5 5 -10 10 -10 6 0 10 5 10 10 0 6 -4 10 -10 10 -5 0
-10 -4 -10 -10z"/>
<path d="M1435 1550 c3 -5 8 -10 11 -10 2 0 4 5 4 10 0 6 -5 10 -11 10 -5 0
-7 -4 -4 -10z"/>
<path d="M295 1513 c1 -21 -2 -41 -7 -44 -7 -4 -6 -14 2 -29 8 -15 15 -19 22
-12 6 6 7 16 2 23 -4 8 -7 30 -5 50 1 20 -2 40 -7 43 -6 4 -9 -9 -7 -31z"/>
<path d="M1367 1533 c-3 -5 -2 -15 2 -22 7 -10 10 -10 16 -1 4 6 3 16 -3 22
-5 5 -12 6 -15 1z"/>
<path d="M1430 1501 c0 -17 5 -33 10 -36 6 -3 10 -17 10 -31 0 -15 6 -24 15
-24 8 0 15 -4 15 -10 0 -5 5 -10 10 -10 16 0 12 14 -15 54 -14 20 -25 48 -25
61 0 14 -4 25 -10 25 -5 0 -10 -13 -10 -29z"/>
<path d="M3759 1514 c-10 -13 -10 -20 4 -44 11 -18 14 -31 7 -35 -14 -9 -13
-42 3 -49 9 -5 9 -7 -1 -12 -17 -8 -5 -24 20 -24 16 0 19 5 16 25 -3 14 -1 28
3 31 11 7 12 84 1 84 -4 0 -14 -6 -21 -12 -11 -11 -13 -7 -8 20 7 35 -3 41
-24 16z"/>
<path d="M1392 1491 c2 -7 7 -12 11 -12 12 1 9 15 -3 20 -7 2 -11 -2 -8 -8z"/>
<path d="M3835 1453 c9 -61 20 -73 29 -31 4 19 2 34 -4 36 -5 2 -10 12 -10 23
0 10 -5 19 -11 19 -8 0 -9 -15 -4 -47z"/>
<path d="M1365 1458 c4 -18 9 -53 9 -77 1 -27 7 -46 15 -49 7 -2 24 -17 39
-33 14 -16 31 -29 38 -29 6 0 14 -7 18 -15 3 -8 10 -15 16 -15 6 0 4 12 -5 30
-20 38 -7 38 30 0 16 -16 30 -28 32 -26 6 6 -30 75 -37 71 -3 -2 -12 12 -19
31 -17 47 -44 47 -35 -1 9 -52 -19 -46 -52 11 -25 42 -26 47 -11 56 10 5 17
16 17 25 0 12 -3 13 -14 4 -11 -9 -16 -6 -24 19 -14 40 -27 39 -17 -2z"/>
<path d="M1265 1460 c3 -5 11 -10 16 -10 6 0 7 5 4 10 -3 6 -11 10 -16 10 -6
0 -7 -4 -4 -10z"/>
<path d="M1316 1450 c3 -14 9 -38 13 -54 7 -31 31 -48 31 -23 0 36 -14 77 -25
77 -8 0 -16 6 -19 13 -4 6 -4 1 0 -13z"/>
<path d="M4200 1460 c0 -5 5 -10 10 -10 6 0 10 5 10 10 0 6 -4 10 -10 10 -5 0
-10 -4 -10 -10z"/>
<path d="M331 1444 c0 -11 3 -14 6 -6 3 7 2 16 -1 19 -3 4 -6 -2 -5 -13z"/>
<path d="M505 1441 c-3 -5 -1 -12 5 -16 5 -3 10 1 10 9 0 18 -6 21 -15 7z"/>
<path d="M1220 1415 c0 -8 5 -15 10 -15 6 0 10 7 10 15 0 8 -4 15 -10 15 -5 0
-10 -7 -10 -15z"/>
<path d="M1180 1410 c0 -5 5 -10 11 -10 5 0 7 5 4 10 -3 6 -8 10 -11 10 -2 0
-4 -4 -4 -10z"/>
<path d="M1260 1410 c0 -12 40 -34 47 -26 9 8 -17 36 -33 36 -8 0 -14 -4 -14
-10z"/>
<path d="M395 1390 c3 -5 8 -10 11 -10 2 0 4 5 4 10 0 6 -5 10 -11 10 -5 0 -7
-4 -4 -10z"/>
<path d="M1510 1380 c0 -11 7 -20 15 -20 17 0 18 2 9 24 -9 23 -24 20 -24 -4z"/>
<path d="M1430 1376 c0 -9 5 -16 10 -16 6 0 10 4 10 9 0 6 -4 13 -10 16 -5 3
-10 -1 -10 -9z"/>
<path d="M3960 1378 c0 -9 5 -20 10 -23 13 -8 13 5 0 25 -8 13 -10 13 -10 -2z"/>
<path d="M1240 1368 c0 -18 68 -71 80 -63 13 8 -14 61 -35 69 -26 10 -45 7
-45 -6z"/>
<path d="M4130 1370 c0 -5 5 -10 10 -10 6 0 10 5 10 10 0 6 -4 10 -10 10 -5 0
-10 -4 -10 -10z"/>
<path d="M372 1330 c0 -14 2 -19 5 -12 2 6 2 18 0 25 -3 6 -5 1 -5 -13z"/>
<path d="M1550 1331 c0 -22 16 -36 24 -22 8 12 -3 41 -15 41 -5 0 -9 -9 -9
-19z"/>
<path d="M1260 1312 c0 -14 6 -22 16 -22 14 0 15 3 3 18 -7 9 -15 19 -16 21
-2 2 -3 -5 -3 -17z"/>
<path d="M1336 1315 c3 -7 16 -21 29 -29 13 -9 30 -34 36 -56 9 -28 18 -40 31
-40 11 0 16 -4 13 -10 -3 -5 -1 -10 5 -10 7 0 20 -10 31 -22 17 -21 18 -21 19
-4 0 10 -16 36 -35 57 -19 22 -35 47 -35 57 -1 28 -32 59 -67 65 -25 5 -31 3
-27 -8z"/>
<path d="M3944 1317 c3 -10 6 -23 6 -28 0 -5 5 -9 10 -9 14 0 12 13 -6 36 -14
17 -15 17 -10 1z"/>
<path d="M431 1279 c11 -22 29 -25 29 -5 0 7 -9 16 -20 19 -17 4 -18 2 -9 -14z"/>
<path d="M4002 1270 c7 -11 16 -20 20 -20 5 0 8 9 8 20 0 13 -7 20 -20 20 -18
0 -19 -2 -8 -20z"/>
<path d="M321 1269 c-1 -8 6 -24 15 -35 15 -19 15 -19 6 1 -5 11 -12 27 -15
35 -5 13 -6 13 -6 -1z"/>
<path d="M1212 1268 c5 -15 28 -23 28 -10 0 5 -7 13 -16 16 -10 4 -14 1 -12
-6z"/>
<path d="M1350 1261 c0 -12 5 -21 10 -21 6 0 10 6 10 14 0 8 -4 18 -10 21 -5
3 -10 -3 -10 -14z"/>
<path d="M1250 1251 c0 -6 5 -13 10 -16 6 -3 10 1 10 9 0 9 -4 16 -10 16 -5 0
-10 -4 -10 -9z"/>
<path d="M1577 1254 c-4 -4 -7 -25 -7 -47 0 -32 3 -37 13 -28 8 6 17 7 22 3
10 -9 -3 60 -13 70 -5 5 -11 5 -15 2z"/>
<path d="M3985 1250 c3 -5 8 -10 11 -10 2 0 4 5 4 10 0 6 -5 10 -11 10 -5 0
-7 -4 -4 -10z"/>
<path d="M1310 1227 c0 -15 37 -53 45 -46 7 7 -19 52 -32 57 -7 2 -13 -3 -13
-11z"/>
<path d="M1522 1229 c2 -7 10 -15 17 -17 8 -3 12 1 9 9 -2 7 -10 15 -17 17 -8
3 -12 -1 -9 -9z"/>
<path d="M4053 1226 c4 -10 7 -22 7 -27 0 -5 4 -9 9 -9 12 0 2 38 -12 47 -7 4
-8 0 -4 -11z"/>
<path d="M1370 1206 c0 -8 5 -18 10 -21 6 -3 10 3 10 14 0 12 -4 21 -10 21 -5
0 -10 -6 -10 -14z"/>
<path d="M3966 1205 c4 -8 8 -15 10 -15 2 0 4 7 4 15 0 8 -4 15 -10 15 -5 0
-7 -7 -4 -15z"/>
<path d="M1510 1189 c0 -12 8 -23 20 -26 13 -3 20 -14 20 -29 0 -13 5 -24 10
-24 19 0 10 47 -15 74 -29 31 -35 32 -35 5z"/>
<path d="M350 1178 c0 -18 5 -28 15 -28 17 0 21 -35 5 -45 -5 -3 -10 -11 -10
-17 0 -7 6 -6 15 2 8 7 15 21 15 32 0 11 5 28 11 40 9 17 8 19 -9 14 -14 -5
-24 -1 -31 11 -9 16 -10 14 -11 -9z"/>
<path d="M1290 1169 c0 -6 9 -13 20 -16 11 -3 20 -13 20 -22 0 -18 18 -41 32
-41 5 0 3 10 -4 23 -7 12 -11 28 -9 36 1 8 -3 18 -11 22 -19 12 -48 11 -48 -2z"/>
<path d="M4030 1155 c0 -14 4 -25 9 -25 4 0 6 11 3 25 -2 14 -6 25 -8 25 -2 0
-4 -11 -4 -25z"/>
<path d="M4090 1170 c0 -5 5 -10 11 -10 5 0 7 5 4 10 -3 6 -8 10 -11 10 -2 0
-4 -4 -4 -10z"/>
<path d="M1370 1159 c0 -16 20 -49 30 -49 4 0 2 14 -6 30 -16 31 -24 38 -24
19z"/>
<path d="M1400 1159 c0 -14 61 -72 68 -65 7 7 -47 76 -59 76 -5 0 -9 -5 -9
-11z"/>
<path d="M1597 1163 c-4 -3 -7 -11 -7 -17 0 -6 5 -5 12 2 6 6 9 14 7 17 -3 3
-9 2 -12 -2z"/>
<path d="M4130 1140 c0 -5 4 -10 9 -10 6 0 13 5 16 10 3 6 -1 10 -9 10 -9 0
-16 -4 -16 -10z"/>
<path d="M1510 1125 c0 -8 5 -15 10 -15 6 0 10 7 10 15 0 8 -4 15 -10 15 -5 0
-10 -7 -10 -15z"/>
<path d="M4201 1124 c0 -11 3 -14 6 -6 3 7 2 16 -1 19 -3 4 -6 -2 -5 -13z"/>
<path d="M1282 1114 c1 -9 9 -19 16 -22 9 -3 13 2 10 14 -1 9 -9 19 -16 22 -9
3 -13 -2 -10 -14z"/>
<path d="M4031 1096 c10 -21 47 -42 57 -31 8 7 -10 45 -19 40 -5 -3 -18 -1
-29 5 -18 10 -19 9 -9 -14z"/>
<path d="M1436 1075 c16 -24 34 -33 34 -17 0 8 -37 42 -45 42 -3 0 2 -11 11
-25z"/>
<path d="M1550 1082 c0 -19 18 -42 32 -42 12 0 9 35 -4 48 -17 17 -28 15 -28
-6z"/>
<path d="M4121 1090 c-16 -9 -6 -30 15 -30 15 0 20 25 6 34 -4 2 -14 1 -21 -4z"/>
<path d="M1380 1071 c0 -20 27 -48 37 -37 9 8 -14 56 -27 56 -5 0 -10 -8 -10
-19z"/>
<path d="M1500 1071 c0 -10 7 -21 15 -25 11 -4 15 1 15 19 0 16 -6 25 -15 25
-8 0 -15 -9 -15 -19z"/>
<path d="M3680 1076 c0 -5 98 -66 105 -66 2 0 2 7 -1 15 -7 17 11 21 21 5 3
-5 14 -10 23 -10 13 0 12 5 -8 20 -17 14 -34 18 -53 14 -19 -4 -29 -1 -33 10
-5 14 -54 24 -54 12z"/>
<path d="M4040 1041 c0 -12 5 -21 10 -21 6 0 10 6 10 14 0 8 -4 18 -10 21 -5
3 -10 -3 -10 -14z"/>
<path d="M4101 1051 c-1 -7 -7 -11 -16 -7 -18 6 -19 -7 -4 -36 10 -18 9 -20
-5 -15 -9 4 -16 2 -16 -3 0 -6 4 -10 10 -10 5 0 7 -6 4 -14 -3 -8 9 -25 29
-40 41 -31 47 -32 40 -5 -3 11 -11 18 -18 15 -17 -6 -25 28 -16 62 5 15 5 36
0 47 -4 11 -8 14 -8 6z"/>
<path d="M1480 1030 c0 -5 5 -10 10 -10 6 0 10 5 10 10 0 6 -4 10 -10 10 -5 0
-10 -4 -10 -10z"/>
<path d="M1436 1014 c-3 -9 -6 -16 -6 -17 0 -1 11 -3 25 -3 27 -2 31 6 13 24
-16 16 -25 15 -32 -4z"/>
<path d="M3697 1023 c-13 -12 -7 -23 13 -23 11 0 20 7 20 15 0 15 -21 21 -33
8z"/>
<path d="M1516 1011 c-3 -5 1 -11 9 -15 8 -3 15 -1 15 4 0 13 -18 22 -24 11z"/>
<path d="M4120 990 c0 -11 4 -20 9 -20 5 0 7 9 4 20 -3 11 -7 20 -9 20 -2 0
-4 -9 -4 -20z"/>
<path d="M3745 990 c-3 -5 1 -10 9 -10 8 0 19 -7 24 -16 7 -13 14 -14 27 -6
17 9 17 10 -3 16 -12 4 -22 12 -22 17 0 12 -27 12 -35 -1z"/>
<path d="M1520 960 c0 -8 5 -22 10 -30 9 -13 10 -13 10 0 0 8 -5 22 -10 30 -9
13 -10 13 -10 0z"/>
<path d="M1751 954 c0 -11 3 -14 6 -6 3 7 2 16 -1 19 -3 4 -6 -2 -5 -13z"/>
<path d="M3993 950 c7 -27 -7 -33 -40 -17 -23 11 -33 11 -51 2 -18 -10 -21
-15 -10 -21 7 -5 19 -9 26 -10 8 -2 22 -10 31 -18 19 -17 56 -22 46 -6 -3 6 3
10 14 10 25 0 25 -2 6 44 -16 38 -31 49 -22 16z"/>
<path d="M3955 950 c3 -5 11 -10 16 -10 6 0 7 5 4 10 -3 6 -11 10 -16 10 -6 0
-7 -4 -4 -10z"/>
<path d="M1570 936 c0 -9 5 -16 10 -16 6 0 10 4 10 9 0 6 -4 13 -10 16 -5 3
-10 -1 -10 -9z"/>
<path d="M4030 942 c0 -5 9 -17 19 -26 15 -13 20 -14 23 -4 3 7 -2 18 -11 25
-19 15 -31 16 -31 5z"/>
<path d="M1660 925 c0 -8 5 -15 10 -15 6 0 10 7 10 15 0 8 -4 15 -10 15 -5 0
-10 -7 -10 -15z"/>
<path d="M3650 930 c0 -5 9 -10 21 -10 11 0 17 5 14 10 -3 6 -13 10 -21 10 -8
0 -14 -4 -14 -10z"/>
<path d="M1607 913 c-14 -13 -6 -33 13 -33 11 0 20 4 20 9 0 13 -26 32 -33 24z"/>
<path d="M3577 906 c-7 -19 34 -29 66 -17 16 6 28 6 35 -1 6 -6 16 -7 23 -2 8
5 -3 12 -32 20 -57 18 -86 17 -92 0z"/>
<path d="M3778 913 c7 -3 16 -2 19 1 4 3 -2 6 -13 5 -11 0 -14 -3 -6 -6z"/>
<path d="M3845 889 c22 -10 47 -19 56 -19 9 0 22 -7 29 -15 10 -12 10 -15 -3
-15 -12 0 -10 -6 9 -26 20 -20 34 -24 62 -22 l37 4 -27 12 c-29 12 -40 36 -13
26 8 -4 15 -1 15 5 0 6 -10 11 -23 11 -12 0 -31 6 -42 13 -22 15 -113 47 -129
46 -6 0 7 -9 29 -20z"/>
<path d="M1560 890 c0 -5 5 -10 10 -10 6 0 10 5 10 10 0 6 -4 10 -10 10 -5 0
-10 -4 -10 -10z"/>
<path d="M1650 864 c0 -14 4 -23 10 -19 6 3 10 15 10 26 0 10 -4 19 -10 19 -5
0 -10 -12 -10 -26z"/>
<path d="M4025 881 c-3 -5 0 -21 6 -35 15 -31 44 -36 36 -6 -3 11 -1 23 4 26
5 3 7 10 4 15 -8 12 -42 12 -50 0z"/>
<path d="M3702 873 c-33 -6 -16 -23 22 -23 44 0 96 11 96 20 0 7 -81 9 -118 3z"/>
<path d="M1520 860 c0 -5 5 -10 10 -10 6 0 10 5 10 10 0 6 -4 10 -10 10 -5 0
-10 -4 -10 -10z"/>
<path d="M3620 860 c0 -5 -7 -10 -15 -10 -8 0 -15 -4 -15 -10 0 -16 26 -11 51
10 l24 19 -22 1 c-13 0 -23 -4 -23 -10z"/>
<path d="M1570 851 c0 -6 5 -13 10 -16 6 -3 10 1 10 9 0 9 -4 16 -10 16 -5 0
-10 -4 -10 -9z"/>
<path d="M1611 844 c0 -11 3 -14 6 -6 3 7 2 16 -1 19 -3 4 -6 -2 -5 -13z"/>
<path d="M3876 844 c-9 -24 -7 -27 9 -10 17 17 19 26 6 26 -5 0 -12 -7 -15
-16z"/>
<path d="M4100 839 c0 -5 5 -7 10 -4 6 3 10 8 10 11 0 2 -4 4 -10 4 -5 0 -10
-5 -10 -11z"/>
<path d="M1680 826 c0 -9 7 -16 16 -16 9 0 14 5 12 12 -6 18 -28 21 -28 4z"/>
<path d="M3645 830 c-4 -6 8 -11 27 -11 82 -4 105 -8 133 -23 36 -19 78 -21
73 -3 -3 6 -20 17 -39 23 -48 16 -187 26 -194 14z"/>
<path d="M1630 820 c0 -5 5 -10 10 -10 6 0 10 5 10 10 0 6 -4 10 -10 10 -5 0
-10 -4 -10 -10z"/>
<path d="M3246 816 c3 -8 13 -12 25 -9 23 6 15 23 -11 23 -12 0 -17 -5 -14
-14z"/>
<path d="M1435 810 c3 -5 8 -10 11 -10 2 0 4 5 4 10 0 6 -5 10 -11 10 -5 0 -7
-4 -4 -10z"/>
<path d="M1495 810 c-3 -5 -1 -10 4 -10 6 0 11 5 11 10 0 6 -2 10 -4 10 -3 0
-8 -4 -11 -10z"/>
<path d="M3410 810 c0 -5 7 -10 16 -10 8 0 12 5 9 10 -3 6 -10 10 -16 10 -5 0
-9 -4 -9 -10z"/>
<path d="M1565 800 c3 -5 11 -10 16 -10 6 0 7 5 4 10 -3 6 -11 10 -16 10 -6 0
-7 -4 -4 -10z"/>
<path d="M3615 800 c3 -5 8 -10 11 -10 2 0 4 5 4 10 0 6 -5 10 -11 10 -5 0 -7
-4 -4 -10z"/>
<path d="M1611 784 c0 -11 3 -14 6 -6 3 7 2 16 -1 19 -3 4 -6 -2 -5 -13z"/>
<path d="M1680 775 c0 -8 7 -15 15 -15 8 0 15 7 15 15 0 8 -7 15 -15 15 -8 0
-15 -7 -15 -15z"/>
<path d="M1730 775 c0 -8 4 -15 8 -15 5 0 9 7 9 15 0 8 -4 15 -9 15 -4 0 -8
-7 -8 -15z"/>
<path d="M3380 778 c0 -23 34 -37 54 -23 19 15 11 24 -29 31 -16 3 -25 0 -25
-8z"/>
<path d="M3673 768 c-32 -19 -43 -38 -23 -38 6 0 10 5 10 10 0 6 11 10 25 10
15 0 25 6 25 14 0 8 6 17 13 19 8 4 7 5 -3 5 -8 0 -30 -9 -47 -20z"/>
<path d="M3760 784 c0 -25 71 -54 114 -47 44 7 48 23 6 23 -17 0 -47 7 -67 15
-38 16 -53 19 -53 9z"/>
<path d="M3930 780 c0 -5 5 -10 11 -10 5 0 7 5 4 10 -3 6 -8 10 -11 10 -2 0
-4 -4 -4 -10z"/>
<path d="M3214 765 c-4 -8 -12 -15 -20 -15 -8 0 -14 -4 -14 -10 0 -5 11 -10
25 -10 15 0 25 6 25 15 0 8 6 12 13 9 7 -2 21 2 32 10 19 15 18 15 -18 16 -24
0 -40 -5 -43 -15z"/>
<path d="M3597 773 c-13 -13 -7 -32 8 -27 8 4 15 12 15 20 0 15 -12 19 -23 7z"/>
<path d="M4025 750 c3 -5 8 -10 11 -10 2 0 4 5 4 10 0 6 -5 10 -11 10 -5 0 -7
-4 -4 -10z"/>
<path d="M1785 740 c3 -5 8 -10 11 -10 2 0 4 5 4 10 0 6 -5 10 -11 10 -5 0 -7
-4 -4 -10z"/>
<path d="M3740 740 c0 -5 5 -10 11 -10 5 0 7 5 4 10 -3 6 -8 10 -11 10 -2 0
-4 -4 -4 -10z"/>
<path d="M3948 743 c7 -3 16 -2 19 1 4 3 -2 6 -13 5 -11 0 -14 -3 -6 -6z"/>
<path d="M4050 739 c0 -5 5 -7 10 -4 6 3 10 8 10 11 0 2 -4 4 -10 4 -5 0 -10
-5 -10 -11z"/>
<path d="M1740 730 c0 -5 5 -10 11 -10 5 0 7 5 4 10 -3 6 -8 10 -11 10 -2 0
-4 -4 -4 -10z"/>
<path d="M3370 729 c0 -7 -11 -9 -30 -5 -18 3 -30 1 -30 -5 0 -6 5 -7 10 -4
13 8 13 -11 0 -35 -13 -23 5 -37 18 -14 5 9 24 19 42 23 34 7 54 31 26 31 -9
0 -16 5 -16 10 0 6 -4 10 -10 10 -5 0 -10 -5 -10 -11z"/>
<path d="M3233 723 c-7 -2 -13 -12 -13 -20 0 -10 6 -13 16 -9 9 3 24 6 35 6
10 0 19 7 19 15 0 15 -31 19 -57 8z"/>
<path d="M3924 715 c22 -17 36 -19 36 -6 0 10 -24 21 -43 21 -7 0 -3 -7 7 -15z"/>
<path d="M3580 710 c0 -5 7 -10 15 -10 8 0 15 5 15 10 0 6 -7 10 -15 10 -8 0
-15 -4 -15 -10z"/>
<path d="M3854 704 c3 -9 6 -18 6 -20 0 -2 9 -4 19 -4 33 0 33 17 0 29 -27 9
-30 8 -25 -5z"/>
<path d="M3989 703 c9 -16 71 -29 71 -14 0 8 -50 31 -67 31 -10 0 -11 -5 -4
-17z"/>
<path d="M1680 690 c0 -5 5 -10 10 -10 6 0 10 5 10 10 0 6 -4 10 -10 10 -5 0
-10 -4 -10 -10z"/>
<path d="M1808 675 c-3 -14 -1 -25 3 -25 5 0 9 11 9 25 0 14 -2 25 -4 25 -2 0
-6 -11 -8 -25z"/>
<path d="M3267 684 c-8 -8 1 -24 14 -24 5 0 9 7 9 15 0 15 -12 20 -23 9z"/>
<path d="M3932 683 c-26 -5 -20 -23 9 -23 10 0 19 7 19 15 0 8 -1 14 -2 14 -2
-1 -13 -4 -26 -6z"/>
<path d="M3404 669 c-3 -6 -1 -16 5 -22 8 -8 11 -5 11 11 0 24 -5 28 -16 11z"/>
<path d="M3816 671 c-3 -5 1 -11 9 -15 9 -3 15 0 15 9 0 16 -16 20 -24 6z"/>
<path d="M3775 660 c-3 -5 1 -10 9 -10 9 0 16 5 16 10 0 6 -4 10 -9 10 -6 0
-13 -4 -16 -10z"/>
<path d="M1545 650 c-3 -5 -1 -10 4 -10 6 0 11 5 11 10 0 6 -2 10 -4 10 -3 0
-8 -4 -11 -10z"/>
<path d="M1744 644 c3 -9 6 -18 6 -20 0 -3 5 -2 10 1 16 10 12 35 -6 35 -11 0
-14 -5 -10 -16z"/>
<path d="M3367 653 c-4 -3 -7 -11 -7 -17 0 -6 5 -5 12 2 6 6 9 14 7 17 -3 3
-9 2 -12 -2z"/>
<path d="M3680 650 c0 -5 7 -10 15 -10 8 0 15 5 15 10 0 6 -7 10 -15 10 -8 0
-15 -4 -15 -10z"/>
<path d="M3855 650 c-3 -6 1 -13 10 -16 19 -8 30 0 20 15 -8 14 -22 14 -30 1z"/>
<path d="M3170 638 c0 -7 4 -19 9 -27 11 -17 25 3 17 24 -7 18 -26 20 -26 3z"/>
<path d="M4000 640 c0 -5 9 -10 20 -10 11 0 20 5 20 10 0 6 -9 10 -20 10 -11
0 -20 -4 -20 -10z"/>
<path d="M1410 631 c0 -5 7 -14 15 -21 18 -15 42 1 31 19 -8 13 -46 15 -46 2z"/>
<path d="M2531 610 c-14 -12 -21 -26 -17 -35 5 -14 9 -14 36 0 18 9 30 23 30
35 0 25 -18 25 -49 0z"/>
<path d="M3096 621 c-3 -5 -3 -23 0 -40 5 -21 12 -31 25 -31 23 0 25 18 4 26
-10 4 -13 14 -9 30 6 23 -9 34 -20 15z"/>
<path d="M3738 618 c17 -8 26 -8 34 0 9 9 4 12 -22 11 -33 0 -34 -1 -12 -11z"/>
<path d="M3828 608 c9 -9 15 -9 24 0 9 9 7 12 -12 12 -19 0 -21 -3 -12 -12z"/>
<path d="M3903 605 c-9 -15 -78 -23 -104 -11 -13 6 -16 2 -12 -17 4 -19 -3
-27 -41 -48 -49 -26 -58 -39 -27 -39 13 0 18 -5 15 -17 -3 -11 3 -23 14 -30
16 -10 28 -7 65 13 25 13 53 21 61 18 12 -5 18 2 22 25 4 17 10 31 14 31 7 0
80 68 80 75 0 2 -8 1 -19 -2 -10 -3 -22 0 -25 6 -10 16 -34 14 -43 -4z"/>
<path d="M1804 598 c3 -10 1 -18 -4 -18 -6 0 -10 -6 -10 -14 0 -9 7 -12 20 -9
24 6 25 13 4 39 -13 16 -15 16 -10 2z"/>
<path d="M2020 595 c0 -8 6 -15 14 -15 8 0 16 7 20 15 4 10 -1 15 -14 15 -11
0 -20 -7 -20 -15z"/>
<path d="M2345 600 c-3 -5 -15 -10 -26 -10 -11 0 -17 -4 -14 -10 3 -5 10 -10
14 -10 14 0 57 39 44 40 -6 0 -15 -4 -18 -10z"/>
<path d="M3650 600 c0 -5 5 -10 10 -10 6 0 10 5 10 10 0 6 -4 10 -10 10 -5 0
-10 -4 -10 -10z"/>
<path d="M3690 595 c-9 -11 -10 -19 -3 -26 7 -7 14 -5 23 6 9 11 10 19 3 26
-7 7 -14 5 -23 -6z"/>
<path d="M2821 563 c-1 -7 -14 -19 -30 -27 -33 -18 -48 -44 -23 -42 22 1 65
52 59 68 -4 10 -6 10 -6 1z"/>
<path d="M4010 561 c0 -6 5 -13 10 -16 6 -3 10 1 10 9 0 9 -4 16 -10 16 -5 0
-10 -4 -10 -9z"/>
<path d="M1280 551 c0 -6 5 -13 10 -16 6 -3 10 1 10 9 0 9 -4 16 -10 16 -5 0
-10 -4 -10 -9z"/>
<path d="M1160 535 c0 -8 5 -15 10 -15 6 0 10 7 10 15 0 8 -4 15 -10 15 -5 0
-10 -7 -10 -15z"/>
<path d="M1336 532 c-3 -5 -2 -21 3 -34 8 -20 10 -21 16 -6 8 20 -9 56 -19 40z"/>
<path d="M1396 504 c-18 -23 -26 -43 -23 -56 6 -23 -23 -87 -40 -88 -24 0 -18
-26 9 -37 40 -17 35 -33 -12 -33 -22 0 -40 -4 -40 -8 0 -5 -12 -14 -26 -21
-25 -11 -25 -13 -10 -30 14 -16 23 -17 61 -8 43 10 62 27 29 27 -9 0 -14 5
-12 12 8 22 23 18 40 -12 21 -37 54 -40 69 -6 7 14 17 22 24 19 15 -5 30 31
20 47 -10 16 5 12 36 -11 16 -11 29 -27 29 -35 0 -8 9 -14 19 -14 17 0 19 4
10 33 -5 17 -20 42 -34 54 -14 12 -25 28 -25 35 0 9 3 9 12 0 18 -18 38 -14
38 7 0 16 -20 37 -88 92 -7 6 -11 13 -8 16 3 3 13 0 22 -8 14 -12 16 -11 12 6
-4 20 -19 23 -50 10 -14 -5 -18 -2 -18 13 0 34 -14 33 -44 -4z m89 -154 c3 -5
1 -10 -4 -10 -6 0 -11 5 -11 10 0 6 2 10 4 10 3 0 8 -4 11 -10z"/>
<path d="M2837 533 c-25 -24 18 -32 49 -8 18 14 17 14 -12 15 -17 0 -34 -3
-37 -7z"/>
<path d="M3075 530 c-3 -5 -1 -10 4 -10 6 0 11 5 11 10 0 6 -2 10 -4 10 -3 0
-8 -4 -11 -10z"/>
<path d="M1250 502 c0 -4 5 -13 10 -18 14 -14 2 -44 -16 -44 -8 0 -23 -5 -33
-12 -15 -9 -17 -16 -10 -30 8 -15 6 -18 -11 -18 -15 0 -20 -5 -18 -17 3 -12
12 -17 30 -16 18 1 28 -4 31 -18 7 -26 57 -27 57 -1 0 24 -20 49 -42 54 -12 2
-15 7 -9 17 7 11 15 10 43 -7 30 -19 34 -19 35 -4 1 9 4 28 5 42 2 19 -1 25
-15 24 -13 -1 -16 3 -12 16 4 13 -1 22 -14 29 -24 13 -31 14 -31 3z"/>
<path d="M3610 500 c0 -5 5 -10 10 -10 6 0 10 5 10 10 0 6 -4 10 -10 10 -5 0
-10 -4 -10 -10z"/>
<path d="M3987 504 c-9 -10 -9 -44 1 -44 4 0 14 5 22 10 13 8 13 11 -1 25 -8
8 -18 12 -22 9z"/>
<path d="M3910 475 c0 -8 7 -15 15 -15 9 0 12 6 9 15 -4 8 -10 15 -15 15 -5 0
-9 -7 -9 -15z"/>
<path d="M1125 449 c-8 -12 23 -49 42 -49 7 0 13 8 13 18 0 33 -40 56 -55 31z"/>
<path d="M3850 440 c8 -5 12 -10 8 -10 -14 0 26 -40 40 -40 9 0 11 7 6 23 -8
26 -22 37 -49 37 -17 0 -17 -2 -5 -10z"/>
<path d="M3925 420 c-3 -5 3 -10 14 -10 12 0 21 5 21 10 0 6 -6 10 -14 10 -8
0 -18 -4 -21 -10z"/>
<path d="M1580 382 c0 -12 19 -26 26 -19 2 2 -2 10 -11 17 -9 8 -15 8 -15 2z"/>
<path d="M1645 360 c-7 -12 2 -30 16 -30 5 0 9 9 9 20 0 21 -15 27 -25 10z"/>
<path d="M1702 334 c2 -11 11 -20 22 -22 13 -3 17 1 14 14 -2 11 -11 20 -22
22 -13 3 -17 -1 -14 -14z"/>
<path d="M3870 340 c0 -5 5 -10 10 -10 6 0 10 5 10 10 0 6 -4 10 -10 10 -5 0
-10 -4 -10 -10z"/>
<path d="M1200 270 c0 -5 5 -10 11 -10 5 0 7 5 4 10 -3 6 -8 10 -11 10 -2 0
-4 -4 -4 -10z"/>
<path d="M1670 250 c0 -5 5 -10 10 -10 6 0 10 5 10 10 0 6 -4 10 -10 10 -5 0
-10 -4 -10 -10z"/>
<path d="M1450 175 c0 -9 6 -12 15 -9 8 4 12 10 9 15 -8 14 -24 10 -24 -6z"/>
<path d="M1525 180 c3 -5 10 -10 16 -10 5 0 9 5 9 10 0 6 -7 10 -16 10 -8 0
-12 -4 -9 -10z"/>
</g>
</svg>
